<?xml version="1.0" encoding="UTF-8"?>
<svg xmlns="http://www.w3.org/2000/svg" xmlns:xlink="http://www.w3.org/1999/xlink" viewBox="0 0 568 342.19">
  <defs>
    <style>
      .cls-1, .cls-2, .cls-3 {
        fill: #231f20;
      }

      .cls-1, .cls-4, .cls-5, .cls-6 {
        stroke-width: 0px;
      }

      .cls-2 {
        stroke-width: .49px;
      }

      .cls-2, .cls-3, .cls-7, .cls-8 {
        stroke-miterlimit: 10;
      }

      .cls-2, .cls-9, .cls-7 {
        stroke: #fff;
      }

      .cls-3 {
        stroke: #231f20;
      }

      .cls-3, .cls-7, .cls-8 {
        stroke-width: .5px;
      }

      .cls-4, .cls-7, .cls-8 {
        fill: none;
      }

      .cls-9 {
        stroke-linecap: round;
        stroke-linejoin: round;
      }

      .cls-9, .cls-6 {
        fill: #fff;
      }

      .cls-10 {
        clip-path: url(#clippath);
      }

      .cls-5 {
        fill: #dbc4df;
      }

      .cls-8 {
        stroke: #dbc4df;
      }
    </style>
    <clipPath id="clippath">
      <rect class="cls-4" x=".5" y="58.38" width="567" height="225.68"/>
    </clipPath>
  </defs>
  <g id="Background">
    <rect class="cls-1" x=".5" y="58.72" width="567" height="225"/>
  </g>
  <g id="Logo_Tile" data-name="Logo Tile">
    <g class="cls-10">
      <g>
        <path class="cls-5" d="M307.62,176.27l-11.99,11.99c-1.34,1.34-1.34,3.51,0,4.85l9.56,9.56c1.34,1.34,1.34,3.51,0,4.85l-11.99,11.99c-.97.97-1.51,2.28-1.51,3.64v24.56c0,1.37.54,2.68,1.51,3.64l24.89,24.89c1.34,1.34,3.51,1.34,4.85,0l10.32-10.32c1.34-1.34,1.34-3.51,0-4.85l-23.97-23.97c-1.34-1.34-1.34-3.51,0-4.85l10.32-10.32c1.34-1.34,1.34-3.51,0-4.85l-8.95-8.95c-1.34-1.34-1.34-3.51,0-4.85l10.32-10.32c1.34-1.34,3.51-1.34,4.85,0l37.77,37.77c1.34,1.34,1.34,3.51,0,4.85l-25.49,25.49c-1.34,1.34-1.34,3.51,0,4.85l9.56,9.56c1.34,1.34,3.51,1.34,4.85,0l27.08-27.08c.96-.96,1.5-2.26,1.51-3.63l.07-24.64c0-1.37-.54-2.69-1.51-3.66l-40.72-40.72c-.64-.64-1.52-1-2.43-1h-25.27c-1.37,0-2.68.54-3.64,1.51Z"/>
        <path class="cls-5" d="M242.69,241.2l-11.99,11.99c-1.34,1.34-1.34,3.51,0,4.85l9.56,9.56c1.34,1.34,1.34,3.51,0,4.85l-11.99,11.99c-.97.97-1.51,2.28-1.51,3.64v24.56c0,1.37.54,2.68,1.51,3.64l24.89,24.89c1.34,1.34,3.51,1.34,4.85,0l10.32-10.32c1.34-1.34,1.34-3.51,0-4.85l-23.97-23.97c-1.34-1.34-1.34-3.51,0-4.85l10.32-10.32c1.34-1.34,1.34-3.51,0-4.85l-8.95-8.95c-1.34-1.34-1.34-3.51,0-4.85l10.32-10.32c1.34-1.34,3.51-1.34,4.85,0l37.77,37.77c1.34,1.34,1.34,3.51,0,4.85l-25.49,25.49c-1.34,1.34-1.34,3.51,0,4.85l9.56,9.56c1.34,1.34,3.51,1.34,4.85,0l27.08-27.08c.96-.96,1.5-2.27,1.51-3.63l.07-24.64c0-1.37-.54-2.69-1.51-3.66l-40.72-40.72c-.64-.64-1.52-1-2.43-1h-25.27c-1.37,0-2.68.54-3.64,1.51Z"/>
        <path class="cls-5" d="M372.48,111.41l-11.99,11.99c-1.34,1.34-1.34,3.51,0,4.85l9.56,9.56c1.34,1.34,1.34,3.51,0,4.85l-11.99,11.99c-.97.97-1.51,2.28-1.51,3.64v24.56c0,1.37.54,2.68,1.51,3.64l24.89,24.89c1.34,1.34,3.51,1.34,4.85,0l10.32-10.32c1.34-1.34,1.34-3.51,0-4.85l-23.97-23.97c-1.34-1.34-1.34-3.51,0-4.85l10.32-10.32c1.34-1.34,1.34-3.51,0-4.85l-8.95-8.95c-1.34-1.34-1.34-3.51,0-4.85l10.32-10.32c1.34-1.34,3.51-1.34,4.85,0l37.77,37.77c1.34,1.34,1.34,3.51,0,4.85l-25.49,25.49c-1.34,1.34-1.34,3.51,0,4.85l9.56,9.56c1.34,1.34,3.51,1.34,4.85,0l27.08-27.08c.96-.96,1.5-2.26,1.51-3.63l.07-24.64c0-1.37-.54-2.69-1.51-3.66l-40.72-40.72c-.64-.64-1.52-1-2.43-1h-25.27c-1.37,0-2.68.54-3.64,1.51Z"/>
        <path class="cls-5" d="M273.24,230.75l11.99-11.99c1.34-1.34,1.34-3.51,0-4.85l-9.56-9.56c-1.34-1.34-1.34-3.51,0-4.85l11.99-11.99c.97-.97,1.51-2.28,1.51-3.64v-24.56c0-1.37-.54-2.68-1.51-3.64l-24.89-24.89c-1.34-1.34-3.51-1.34-4.85,0l-10.32,10.32c-1.34,1.34-1.34,3.51,0,4.85l23.97,23.97c1.34,1.34,1.34,3.51,0,4.85l-10.32,10.32c-1.34,1.34-1.34,3.51,0,4.85l8.95,8.95c1.34,1.34,1.34,3.51,0,4.85l-10.32,10.32c-1.34,1.34-3.51,1.34-4.85,0l-37.77-37.77c-1.34-1.34-1.34-3.51,0-4.85l25.49-25.49c1.34-1.34,1.34-3.51,0-4.85l-9.56-9.56c-1.34-1.34-3.51-1.34-4.85,0l-27.08,27.08c-.96.96-1.5,2.27-1.51,3.63l-.07,24.64c0,1.37.54,2.69,1.51,3.66l40.72,40.72c.64.64,1.52,1,2.43,1h25.27c1.37,0,2.68-.54,3.64-1.51Z"/>
        <path class="cls-5" d="M338.09,165.89l11.99-11.99c1.34-1.34,1.34-3.51,0-4.85l-9.56-9.56c-1.34-1.34-1.34-3.51,0-4.85l11.99-11.99c.97-.97,1.51-2.28,1.51-3.64v-24.56c0-1.37-.54-2.68-1.51-3.64l-24.89-24.89c-1.34-1.34-3.51-1.34-4.85,0l-10.32,10.32c-1.34,1.34-1.34,3.51,0,4.85l23.97,23.97c1.34,1.34,1.34,3.51,0,4.85l-10.32,10.32c-1.34,1.34-1.34,3.51,0,4.85l8.95,8.95c1.34,1.34,1.34,3.51,0,4.85l-10.32,10.32c-1.34,1.34-3.51,1.34-4.85,0l-37.77-37.77c-1.34-1.34-1.34-3.51,0-4.85l25.49-25.49c1.34-1.34,1.34-3.51,0-4.85l-9.56-9.56c-1.34-1.34-3.51-1.34-4.85,0l-27.08,27.08c-.96.96-1.5,2.27-1.51,3.63l-.07,24.64c0,1.37.54,2.69,1.51,3.66l40.72,40.72c.64.64,1.52,1,2.43,1h25.27c1.37,0,2.68-.54,3.64-1.51Z"/>
        <path class="cls-5" d="M403,100.99l11.99-11.99c1.34-1.34,1.34-3.51,0-4.85l-9.56-9.56c-1.34-1.34-1.34-3.51,0-4.85l11.99-11.99c.97-.97,1.51-2.27,1.51-3.64v-24.56c0-1.37-.54-2.68-1.51-3.64l-24.89-24.89c-1.34-1.34-3.51-1.34-4.85,0l-10.32,10.32c-1.34,1.34-1.34,3.51,0,4.85l23.97,23.97c1.34,1.34,1.34,3.51,0,4.85l-10.32,10.32c-1.34,1.34-1.34,3.51,0,4.85l8.95,8.95c1.34,1.34,1.34,3.51,0,4.85l-10.32,10.32c-1.34,1.34-3.51,1.34-4.85,0l-37.77-37.77c-1.34-1.34-1.34-3.51,0-4.85l25.49-25.49c1.34-1.34,1.34-3.51,0-4.85l-9.56-9.56c-1.34-1.34-3.51-1.34-4.85,0l-27.08,27.08c-.96.96-1.5,2.26-1.51,3.63l-.07,24.64c0,1.37.54,2.69,1.51,3.66l40.72,40.72c.64.64,1.52,1,2.43,1h25.27c1.37,0,2.68-.54,3.64-1.51Z"/>
      </g>
    </g>
  </g>
  <g id="Name_Text" data-name="Name &amp;amp; Text">
    <g>
      <path class="cls-6" d="M61.26,264.55H19.92v-14.71c0-2.99.56-5.6,1.68-7.82s2.69-3.95,4.69-5.17c2.01-1.22,4.29-1.83,6.85-1.83s4.9.61,6.91,1.83c2.01,1.22,3.57,2.94,4.69,5.17s1.68,4.83,1.68,7.82v12.93h-4.02v-12.93c0-2.24-.37-4.16-1.12-5.76-.75-1.59-1.81-2.79-3.19-3.6-1.38-.81-3.03-1.21-4.96-1.21-2.87,0-5.13.92-6.76,2.75-1.63,1.83-2.45,4.44-2.45,7.82v10.57h37.32v4.13Z"/>
      <path class="cls-6" d="M61.26,230.89h-29.47v-3.72h5.02v-.29c-1.61-.83-2.9-2-3.87-3.51-.96-1.51-1.45-3.36-1.45-5.52v-4.13h3.72v4.13c0,2.8.94,5.02,2.83,6.67,1.89,1.65,4.37,2.48,7.44,2.48h15.77v3.9Z"/>
      <path class="cls-6" d="M61.85,197.86c0,2.76-.67,5.28-2.01,7.56-1.34,2.28-3.18,4.08-5.52,5.37-2.34,1.3-4.95,1.95-7.82,1.95s-5.47-.65-7.8-1.95c-2.32-1.3-4.15-3.09-5.49-5.37-1.34-2.28-2.01-4.8-2.01-7.56s.66-5.25,1.98-7.47c1.32-2.22,3.16-3.98,5.52-5.26,2.36-1.28,5.04-1.92,8.03-1.92h.89v27.46h-3.25v-25.22l1.18,1.65c-2.01.12-3.83.63-5.46,1.54-1.63.91-2.93,2.16-3.9,3.75-.96,1.59-1.45,3.42-1.45,5.46s.5,3.96,1.51,5.61c1,1.65,2.4,2.95,4.19,3.9,1.79.94,3.81,1.42,6.05,1.42s4.31-.47,6.08-1.42c1.77-.95,3.16-2.24,4.16-3.9,1-1.65,1.51-3.52,1.51-5.61,0-2.4-.58-4.47-1.74-6.2-1.16-1.73-2.73-2.99-4.69-3.78v-4.02c1.85.59,3.54,1.54,5.08,2.83,1.54,1.3,2.75,2.9,3.63,4.81.89,1.91,1.33,4.03,1.33,6.35Z"/>
      <path class="cls-6" d="M61.26,175.27H24.24v-3.9h33.42v-9.92h3.6v13.82ZM35.34,181.88h-3.54v-18.48h3.54v18.48Z"/>
      <path class="cls-6" d="M61.26,153.48H24.24v-3.9h33.42v-9.92h3.6v13.82ZM35.34,160.1h-3.54v-18.48h3.54v18.48Z"/>
      <path class="cls-6" d="M72.48,126.42l-12.76-3.84,1.54-1.18v8.15l-29.47,9.04v-4.07l25.87-7.8v-6.5l1.24,2.13-27.11-7.97v-4.07l40.69,12.11v4.02Z"/>
      <path class="cls-6" d="M110.48,265.2h-41.34v-13.88c0-4.09.89-7.78,2.66-11.04,1.77-3.27,4.22-5.84,7.35-7.71,3.13-1.87,6.68-2.8,10.66-2.8s7.53.94,10.66,2.8c3.13,1.87,5.58,4.44,7.35,7.71,1.77,3.27,2.66,6.95,2.66,11.04v13.88ZM103.98,251.32c0-2.87-.58-5.4-1.74-7.59-1.16-2.18-2.81-3.88-4.96-5.08-2.15-1.2-4.64-1.8-7.47-1.8s-5.32.6-7.47,1.8c-2.15,1.2-3.8,2.89-4.96,5.08-1.16,2.19-1.74,4.72-1.74,7.59v7.09h28.35v-7.09Z"/>
      <path class="cls-6" d="M111.07,210.98c0,2.91-.69,5.57-2.07,7.97-1.38,2.4-3.26,4.3-5.64,5.7-2.38,1.4-5.03,2.1-7.94,2.1s-5.56-.7-7.94-2.1c-2.38-1.4-4.26-3.3-5.64-5.7-1.38-2.4-2.07-5.06-2.07-7.97s.67-5.48,2.01-7.82c1.34-2.34,3.24-4.2,5.7-5.58,2.46-1.38,5.31-2.07,8.53-2.07h1.48v27.76h-5.02v-23.92l1.59,2.42c-1.57.16-3.02.62-4.34,1.39-1.32.77-2.37,1.82-3.16,3.16-.79,1.34-1.18,2.89-1.18,4.67s.42,3.42,1.27,4.81c.85,1.4,2.03,2.49,3.54,3.28,1.52.79,3.26,1.18,5.23,1.18s3.71-.39,5.23-1.18c1.52-.79,2.7-1.88,3.54-3.28.85-1.4,1.27-3,1.27-4.81,0-2.13-.43-3.85-1.3-5.17-.87-1.32-2.01-2.35-3.43-3.1v-6.5c1.77.55,3.45,1.48,5.02,2.78,1.58,1.3,2.85,2.96,3.84,4.99.98,2.03,1.48,4.36,1.48,7Z"/>
      <path class="cls-6" d="M111.07,176.99c0,2.91-.69,5.58-2.07,8-1.38,2.42-3.26,4.33-5.64,5.73-2.38,1.4-5.03,2.1-7.94,2.1s-5.56-.7-7.94-2.1c-2.38-1.4-4.26-3.31-5.64-5.73-1.38-2.42-2.07-5.09-2.07-8,0-2.72.55-5.12,1.65-7.21,1.1-2.09,2.5-3.74,4.19-4.96,1.69-1.22,3.39-2.01,5.08-2.36v6.44c-1.34.47-2.56,1.44-3.66,2.89-1.1,1.46-1.65,3.19-1.65,5.2,0,1.81.42,3.42,1.27,4.84.85,1.42,2.03,2.52,3.54,3.31,1.52.79,3.26,1.18,5.23,1.18s3.71-.39,5.23-1.18c1.52-.79,2.7-1.89,3.54-3.31.85-1.42,1.27-3.03,1.27-4.84,0-2.01-.55-3.74-1.65-5.2-1.1-1.46-2.32-2.42-3.66-2.89v-6.44c1.69.35,3.39,1.14,5.08,2.36,1.69,1.22,3.09,2.87,4.19,4.96,1.1,2.09,1.65,4.49,1.65,7.21Z"/>
      <path class="cls-6" d="M111.07,144.35c0,2.91-.69,5.57-2.07,7.97-1.38,2.4-3.26,4.3-5.64,5.7-2.38,1.4-5.03,2.1-7.94,2.1s-5.56-.7-7.94-2.1c-2.38-1.4-4.26-3.3-5.64-5.7-1.38-2.4-2.07-5.06-2.07-7.97s.67-5.48,2.01-7.82c1.34-2.34,3.24-4.2,5.7-5.58,2.46-1.38,5.31-2.07,8.53-2.07h1.48v27.76h-5.02v-23.92l1.59,2.42c-1.57.16-3.02.62-4.34,1.39-1.32.77-2.37,1.82-3.16,3.16-.79,1.34-1.18,2.89-1.18,4.67s.42,3.42,1.27,4.81c.85,1.4,2.03,2.49,3.54,3.28,1.52.79,3.26,1.18,5.23,1.18s3.71-.39,5.23-1.18c1.52-.79,2.7-1.88,3.54-3.28.85-1.4,1.27-3,1.27-4.81,0-2.13-.43-3.85-1.3-5.17-.87-1.32-2.01-2.35-3.43-3.1v-6.5c1.77.55,3.45,1.48,5.02,2.78,1.58,1.3,2.85,2.96,3.84,4.99.98,2.03,1.48,4.36,1.48,7Z"/>
      <path class="cls-6" d="M110.48,124.6h-30.12v-5.91h4.43v-.3c-1.5-.91-2.71-2.22-3.63-3.96-.92-1.73-1.39-3.76-1.39-6.08s.48-4.41,1.45-6.14c.97-1.73,2.4-3.06,4.31-3.99,1.91-.92,4.22-1.39,6.94-1.39h18.01v6.2h-17.01c-2.56,0-4.55.59-5.96,1.77-1.42,1.18-2.13,2.91-2.13,5.2,0,1.58.36,3,1.09,4.28.73,1.28,1.74,2.28,3.04,3.01,1.3.73,2.78,1.09,4.43,1.09h16.54v6.2Z"/>
      <path class="cls-6" d="M110.48,87.83h-37.5v-6.2h31.89v-9.45h5.61v15.65ZM85.97,94.32h-5.61v-20.37h5.61v20.37Z"/>
    </g>
    <g>
      <path class="cls-6" d="M544.19,270.02h-3.97v-1.67c0-.24.04-.45.13-.63.09-.18.21-.32.36-.42.15-.1.33-.15.52-.15s.38.05.52.15c.15.1.26.23.33.4h.03c.06-.2.18-.37.35-.5.17-.13.38-.19.62-.19.22,0,.41.06.58.17.17.11.3.27.39.48.09.21.14.44.14.71v1.66ZM543.71,268.36c0-.17-.03-.31-.08-.44-.05-.13-.13-.22-.24-.29-.1-.07-.22-.1-.36-.1s-.27.03-.37.1c-.1.06-.18.16-.23.28-.05.12-.08.27-.08.43v1.38h-.45v-1.35c0-.22-.05-.39-.17-.51-.11-.12-.26-.18-.44-.18-.12,0-.23.03-.32.08s-.16.14-.21.24c-.05.1-.07.23-.07.37v1.14h3.03v-1.15Z"/>
      <path class="cls-6" d="M544.19,266.31h-2.86v-.45h.46v-.03c-.14-.07-.26-.18-.35-.32s-.14-.31-.14-.52v-.4h.45v.4c0,.25.08.46.25.61.17.15.38.23.65.23h1.54v.47Z"/>
      <path class="cls-6" d="M544.24,262.94c0,.27-.07.52-.2.75-.13.23-.31.4-.54.53s-.48.2-.75.2-.53-.07-.75-.2-.41-.31-.54-.53c-.13-.22-.2-.47-.2-.75s.06-.51.19-.73c.13-.22.31-.39.54-.52s.49-.19.79-.19h.11v2.65h-.39v-2.36l.14.19c-.17.01-.33.06-.48.14-.15.08-.26.2-.34.34-.08.14-.12.3-.12.48,0,.19.04.36.13.51.09.15.21.26.38.35.16.08.34.12.55.12s.39-.04.55-.12c.16-.08.29-.2.37-.35.09-.15.13-.32.13-.51,0-.22-.05-.4-.15-.55s-.23-.26-.4-.33v-.49c.17.05.33.14.48.27.15.12.27.28.36.47s.13.4.13.63Z"/>
      <path class="cls-6" d="M544.19,260.53l-2.86.61v-.48l2.43-.49v-.24l-2.43-.5v-.84l2.43-.5v-.24l-2.43-.49v-.48l2.86.61v.94l-2.43.5v.17l2.43.49v.95Z"/>
      <path class="cls-6" d="M544.24,255.05c0,.27-.07.52-.2.75-.13.23-.31.4-.54.53s-.48.2-.75.2-.53-.07-.75-.2-.41-.31-.54-.53c-.13-.22-.2-.47-.2-.75s.06-.51.19-.73c.13-.22.31-.39.54-.52s.49-.19.79-.19h.11v2.65h-.39v-2.36l.14.19c-.17.01-.33.06-.48.14-.15.08-.26.2-.34.34-.08.14-.12.3-.12.48,0,.19.04.36.13.51.09.15.21.26.38.35.16.08.34.12.55.12s.39-.04.55-.12c.16-.08.29-.2.37-.35.09-.15.13-.32.13-.51,0-.22-.05-.4-.15-.55s-.23-.26-.4-.33v-.49c.17.05.33.14.48.27.15.12.27.28.36.47s.13.4.13.63Z"/>
      <path class="cls-6" d="M544.24,251.81c0,.25-.06.47-.19.67-.12.2-.3.36-.52.48-.22.12-.48.18-.77.18s-.55-.06-.77-.18-.4-.28-.53-.48c-.12-.2-.19-.43-.19-.67,0-.21.05-.41.14-.58.1-.18.22-.31.37-.4v-.03h-1.57v-.47h3.97v.45h-.48v.03c.16.1.29.24.39.42.1.18.14.38.14.59ZM543.81,251.71c0-.18-.04-.34-.13-.48s-.21-.24-.37-.32c-.16-.08-.35-.12-.56-.12s-.4.04-.56.12c-.16.08-.28.18-.37.32s-.13.29-.13.48.04.35.12.5c.08.14.2.25.36.33.16.08.35.12.57.12s.4-.04.56-.12c.16-.08.28-.19.37-.33.08-.14.12-.31.12-.5Z"/>
      <path class="cls-6" d="M540.89,247.8c0,.09-.03.16-.09.22-.06.06-.13.08-.21.08s-.15-.03-.21-.08c-.06-.06-.09-.13-.09-.22s.03-.15.09-.21c.06-.06.13-.09.21-.09s.15.03.21.09.09.13.09.21ZM544.19,248.03h-2.86v-.47h2.86v.47Z"/>
      <path class="cls-6" d="M544.19,246.71h-2.86v-.45h.46v-.03c-.16-.09-.28-.23-.38-.4-.09-.17-.14-.37-.14-.59s.05-.43.14-.59c.09-.16.23-.29.41-.38.18-.09.4-.13.66-.13h1.71v.47h-1.63c-.27,0-.48.06-.63.19-.15.12-.22.31-.22.55,0,.17.04.32.11.45.08.14.18.24.32.32.14.08.3.11.48.11h1.56v.47Z"/>
      <path class="cls-6" d="M544.24,240.73c0,.27-.07.52-.2.75-.13.23-.31.4-.53.53s-.48.2-.76.2-.53-.07-.76-.2-.4-.31-.53-.53c-.13-.22-.2-.47-.2-.75,0-.25.05-.46.14-.65s.22-.35.38-.46.33-.2.5-.24v.48c-.17.06-.31.17-.43.32-.12.16-.17.34-.17.56,0,.19.04.36.13.51.09.15.21.27.38.35.16.08.34.12.55.12s.39-.04.55-.12c.16-.08.29-.2.37-.35.09-.15.13-.32.13-.51,0-.22-.06-.4-.17-.56-.12-.15-.26-.26-.43-.32v-.48c.17.04.34.12.5.24.16.12.29.27.39.46.1.19.15.41.15.65Z"/>
      <path class="cls-6" d="M544.24,237.47c0,.28-.06.52-.19.75-.13.22-.3.4-.53.52s-.48.19-.77.19-.54-.06-.77-.19c-.23-.13-.4-.3-.53-.52-.13-.22-.19-.47-.19-.75s.06-.53.19-.75c.13-.22.3-.39.53-.52.23-.12.48-.19.77-.19s.54.06.77.19c.23.12.4.3.53.52.13.22.19.47.19.75ZM543.81,237.47c0-.2-.04-.37-.13-.51s-.21-.26-.37-.34c-.16-.08-.34-.12-.56-.12s-.4.04-.56.12c-.16.08-.28.19-.37.34s-.13.32-.13.51.04.36.13.51.21.26.37.34.34.12.56.12.4-.04.56-.12c.16-.08.28-.19.37-.34s.13-.31.13-.51Z"/>
      <path class="cls-6" d="M544.19,235.33h-3.97v-.47h3.54v-.66h.43v1.13Z"/>
      <path class="cls-6" d="M544.19,233.63h-3.97v-.47h3.54v-.66h.43v1.13Z"/>
      <path class="cls-6" d="M544.24,230.92c0,.25-.06.47-.19.67-.12.2-.3.36-.52.48-.22.12-.48.18-.77.18s-.55-.06-.77-.18-.4-.28-.53-.48c-.12-.2-.19-.43-.19-.67,0-.21.05-.41.14-.59.1-.18.23-.32.39-.42v-.03h-.48v-.45h2.86v.45h-.48v.03c.16.1.29.24.39.42.1.18.14.38.14.59ZM543.81,230.82c0-.18-.04-.34-.13-.48s-.21-.24-.37-.32c-.16-.08-.35-.12-.56-.12s-.4.04-.56.12c-.16.08-.28.18-.37.32s-.13.29-.13.48.04.35.12.5c.08.14.2.25.36.33.16.08.35.12.57.12s.4-.04.56-.12c.16-.08.28-.19.37-.33.08-.14.12-.31.12-.5Z"/>
      <path class="cls-6" d="M544.24,227.12c0,.22-.05.41-.14.59-.1.18-.23.32-.39.42v.03h.48v.45h-3.97v-.47h1.57v-.03c-.15-.09-.28-.22-.37-.4s-.14-.37-.14-.59c0-.25.06-.47.19-.67.12-.2.3-.36.53-.48.22-.12.48-.18.77-.18s.55.06.77.18c.23.12.4.28.52.48.12.2.19.43.19.67ZM543.81,227.23c0-.19-.04-.35-.12-.5-.08-.14-.21-.25-.37-.33-.16-.08-.35-.12-.56-.12s-.41.04-.57.12c-.16.08-.28.19-.36.33-.08.14-.12.31-.12.5s.04.34.13.48c.08.14.21.24.37.32.16.08.35.12.56.12s.4-.04.56-.12c.16-.08.28-.18.37-.32.08-.14.13-.29.13-.48Z"/>
      <path class="cls-6" d="M544.24,223.87c0,.28-.06.52-.19.75-.13.22-.3.4-.53.52s-.48.19-.77.19-.54-.06-.77-.19c-.23-.13-.4-.3-.53-.52-.13-.22-.19-.47-.19-.75s.06-.53.19-.75c.13-.22.3-.39.53-.52.23-.12.48-.19.77-.19s.54.06.77.19c.23.12.4.3.53.52.13.22.19.47.19.75ZM543.81,223.87c0-.2-.04-.37-.13-.51s-.21-.26-.37-.34c-.16-.08-.34-.12-.56-.12s-.4.04-.56.12c-.16.08-.28.19-.37.34s-.13.32-.13.51.04.36.13.51.21.26.37.34.34.12.56.12.4-.04.56-.12c.16-.08.28-.19.37-.34s.13-.31.13-.51Z"/>
      <path class="cls-6" d="M544.19,221.76h-2.86v-.45h.46v-.03c-.14-.07-.26-.18-.35-.32s-.14-.31-.14-.52v-.4h.45v.4c0,.25.08.46.25.61.17.15.38.23.65.23h1.54v.47Z"/>
      <path class="cls-6" d="M544.24,218.54c0,.25-.06.47-.19.67-.12.2-.3.36-.52.48-.22.12-.48.18-.77.18s-.55-.06-.77-.18-.4-.28-.53-.48c-.12-.2-.19-.43-.19-.67,0-.21.05-.41.14-.59.1-.18.23-.32.39-.42v-.03h-.48v-.45h2.86v.45h-.48v.03c.16.1.29.24.39.42.1.18.14.38.14.59ZM543.81,218.43c0-.18-.04-.34-.13-.48s-.21-.24-.37-.32c-.16-.08-.35-.12-.56-.12s-.4.04-.56.12c-.16.08-.28.18-.37.32s-.13.29-.13.48.04.35.12.5c.08.14.2.25.36.33.16.08.35.12.57.12s.4-.04.56-.12c.16-.08.28-.19.37-.33.08-.14.12-.31.12-.5Z"/>
      <path class="cls-6" d="M544.19,215.85h-3.58v-.47h3.15v-.93h.43v1.4ZM541.76,216.49h-.43v-1.86h.43v1.86Z"/>
      <path class="cls-6" d="M540.89,213.6c0,.09-.03.16-.09.22-.06.06-.13.08-.21.08s-.15-.03-.21-.08c-.06-.06-.09-.13-.09-.22s.03-.15.09-.21c.06-.06.13-.09.21-.09s.15.03.21.09.09.13.09.21ZM544.19,213.83h-2.86v-.47h2.86v.47Z"/>
      <path class="cls-6" d="M544.24,211.23c0,.28-.06.52-.19.75-.13.22-.3.4-.53.52s-.48.19-.77.19-.54-.06-.77-.19c-.23-.13-.4-.3-.53-.52-.13-.22-.19-.47-.19-.75s.06-.53.19-.75c.13-.22.3-.39.53-.52.23-.12.48-.19.77-.19s.54.06.77.19c.23.12.4.3.53.52.13.22.19.47.19.75ZM543.81,211.23c0-.2-.04-.37-.13-.51s-.21-.26-.37-.34c-.16-.08-.34-.12-.56-.12s-.4.04-.56.12c-.16.08-.28.19-.37.34s-.13.32-.13.51.04.36.13.51.21.26.37.34.34.12.56.12.4-.04.56-.12c.16-.08.28-.19.37-.34s.13-.31.13-.51Z"/>
      <path class="cls-6" d="M544.19,209.12h-2.86v-.45h.46v-.03c-.16-.09-.28-.23-.38-.4-.09-.17-.14-.37-.14-.59s.05-.43.14-.59c.09-.16.23-.29.41-.38.18-.09.4-.13.66-.13h1.71v.47h-1.63c-.27,0-.48.06-.63.19-.15.12-.22.31-.22.55,0,.17.04.32.11.45.08.14.18.24.32.32.14.08.3.11.48.11h1.56v.47Z"/>
      <path class="cls-6" d="M544.19,204.06l-2.86.61v-.48l2.43-.49v-.24l-2.43-.5v-.84l2.43-.5v-.24l-2.43-.49v-.48l2.86.61v.94l-2.43.5v.17l2.43.49v.95Z"/>
      <path class="cls-6" d="M540.89,199.54c0,.09-.03.16-.09.22-.06.06-.13.08-.21.08s-.15-.03-.21-.08c-.06-.06-.09-.13-.09-.22s.03-.15.09-.21c.06-.06.13-.09.21-.09s.15.03.21.09.09.13.09.21ZM544.19,199.78h-2.86v-.47h2.86v.47Z"/>
      <path class="cls-6" d="M544.19,198.08h-3.58v-.47h3.15v-.93h.43v1.4ZM541.76,198.72h-.43v-1.86h.43v1.86Z"/>
      <path class="cls-6" d="M544.19,196.06h-3.97v-.47h1.55v-.03c-.15-.09-.27-.21-.36-.38s-.14-.36-.14-.58c0-.23.05-.43.14-.59.09-.16.23-.29.41-.38.18-.09.4-.13.66-.13h1.71v.47h-1.63c-.27,0-.48.06-.63.19-.15.12-.22.31-.22.55,0,.17.04.32.11.45.08.14.18.24.32.32.14.08.3.11.48.11h1.56v.47Z"/>
      <path class="cls-6" d="M551.05,268.66c0,.32-.07.59-.2.83-.13.23-.32.41-.57.54-.25.13-.54.19-.87.19h-2.39v-.51h2.39c.24,0,.45-.04.62-.12s.3-.2.39-.36.14-.34.14-.56c0-.33-.1-.58-.3-.77s-.48-.28-.85-.28h-2.39v-.51h2.39c.34,0,.63.06.87.19.25.13.43.31.57.54.13.23.2.51.2.82Z"/>
      <path class="cls-6" d="M550.99,266.26h-2.86v-.45h.46v-.03c-.14-.07-.26-.18-.35-.32-.09-.14-.14-.31-.14-.52v-.4h.45v.4c0,.25.08.46.25.61.17.15.38.23.65.23h1.54v.47Z"/>
      <path class="cls-6" d="M551.04,262.59c0,.22-.05.41-.14.59-.1.18-.23.32-.39.42v.03h.48v.45h-3.97v-.47h1.57v-.03c-.15-.09-.27-.22-.37-.4s-.14-.37-.14-.59c0-.25.06-.47.19-.67.12-.2.3-.36.52-.48.22-.12.48-.18.77-.18s.55.06.77.18c.23.12.4.28.52.48.12.2.19.43.19.67ZM550.61,262.69c0-.19-.04-.35-.12-.5-.08-.14-.21-.25-.37-.33-.16-.08-.35-.12-.56-.12s-.41.04-.57.12c-.16.08-.28.19-.36.33-.08.14-.12.31-.12.5s.04.34.13.48c.08.14.21.24.37.32.16.08.35.12.56.12s.4-.04.56-.12c.16-.08.28-.18.37-.32.08-.14.13-.29.13-.48Z"/>
      <path class="cls-6" d="M551.04,259.46c0,.25-.06.47-.19.67-.12.2-.3.36-.52.48-.22.12-.48.18-.77.18s-.55-.06-.77-.18c-.23-.12-.4-.28-.52-.48-.12-.2-.19-.43-.19-.67,0-.21.05-.41.14-.59.1-.18.23-.32.39-.42v-.03h-.48v-.45h2.86v.45h-.48v.03c.16.1.29.24.39.42.1.18.14.38.14.59ZM550.61,259.35c0-.18-.04-.34-.13-.48s-.21-.24-.37-.32c-.16-.08-.35-.12-.56-.12s-.4.04-.56.12c-.16.08-.28.18-.37.32s-.13.29-.13.48.04.35.12.5c.08.14.2.25.36.33.16.08.35.12.57.12s.4-.04.56-.12c.16-.08.28-.19.37-.33.08-.14.12-.31.12-.5Z"/>
      <path class="cls-6" d="M550.99,257.14h-2.86v-.45h.46v-.03c-.15-.09-.28-.23-.37-.4-.09-.17-.14-.37-.14-.59s.05-.43.14-.59c.09-.16.23-.29.41-.38.18-.09.4-.13.66-.13h1.71v.47h-1.63c-.27,0-.48.06-.63.19-.15.12-.22.31-.22.55,0,.17.04.32.11.45.08.14.18.24.32.32.14.08.3.11.48.11h1.56v.47Z"/>
      <path class="cls-6" d="M550.99,253.78h-2.86v-.45h.46v-.03c-.14-.07-.26-.18-.35-.32-.09-.14-.14-.31-.14-.52v-.4h.45v.4c0,.25.08.46.25.61.17.15.38.23.65.23h1.54v.47Z"/>
      <path class="cls-6" d="M551.04,250.41c0,.27-.07.52-.2.75-.13.23-.31.4-.54.53s-.48.2-.75.2-.53-.07-.75-.2-.41-.31-.54-.53c-.13-.22-.2-.47-.2-.75s.06-.51.19-.73c.13-.22.31-.39.54-.52s.49-.19.79-.19h.11v2.65h-.39v-2.36l.14.19c-.17.01-.33.06-.48.14-.15.08-.26.2-.34.34-.08.14-.12.3-.12.48,0,.19.04.36.13.51s.21.26.37.35c.16.08.34.12.55.12s.39-.04.55-.12c.16-.08.29-.2.37-.35.09-.15.13-.32.13-.51,0-.22-.05-.4-.15-.55s-.23-.26-.4-.33v-.49c.17.05.33.14.48.27.15.12.27.28.36.47s.13.4.13.63Z"/>
      <path class="cls-6" d="M551.04,247.3c0,.27-.04.5-.12.69s-.19.33-.33.43c-.14.1-.3.15-.47.16v-.49c.16-.02.28-.09.37-.22.09-.13.13-.32.13-.56s-.04-.44-.12-.56-.18-.18-.31-.18c-.09,0-.16.03-.21.1-.06.07-.1.15-.13.25-.03.1-.06.24-.1.41-.05.24-.11.43-.16.58-.05.15-.14.28-.25.39-.12.11-.27.16-.46.16-.14,0-.27-.04-.39-.13s-.22-.22-.29-.39c-.07-.17-.11-.38-.11-.61,0-.26.04-.48.13-.66.09-.18.2-.31.33-.4.13-.09.26-.13.4-.14v.49c-.13.02-.23.08-.31.19-.08.11-.12.28-.12.52,0,.22.04.38.11.48.07.1.16.16.27.16.09,0,.16-.03.22-.1s.1-.15.13-.25.06-.24.1-.41c.05-.24.1-.44.15-.59.05-.15.14-.28.25-.39.11-.11.27-.16.46-.16.16,0,.31.05.44.14.13.09.23.23.31.41.08.18.11.41.11.67Z"/>
      <path class="cls-6" d="M550.99,245.2h-3.58v-.47h3.15v-.93h.43v1.4ZM548.56,245.84h-.43v-1.86h.43v1.86Z"/>
      <path class="cls-6" d="M550.99,241.79h-3.97v-1.67c0-.24.04-.45.13-.63.09-.18.21-.32.36-.42.15-.1.32-.15.52-.15s.37.05.52.15c.15.1.26.23.33.4h.03c.06-.2.18-.37.35-.5.17-.13.38-.19.62-.19.22,0,.41.06.58.17.17.11.3.27.39.48.09.21.14.44.14.71v1.66ZM550.52,240.12c0-.17-.03-.31-.08-.44-.05-.13-.13-.22-.24-.29-.1-.07-.22-.1-.36-.1s-.27.03-.37.1c-.1.06-.18.16-.23.28-.05.12-.08.27-.08.43v1.38h-.45v-1.35c0-.22-.05-.39-.16-.51s-.26-.18-.44-.18c-.12,0-.23.03-.32.08s-.16.14-.21.24c-.05.1-.07.23-.07.37v1.14h3.03v-1.15Z"/>
      <path class="cls-6" d="M550.99,238.07h-2.86v-.45h.46v-.03c-.14-.07-.26-.18-.35-.32-.09-.14-.14-.31-.14-.52v-.4h.45v.4c0,.25.08.46.25.61.17.15.38.23.65.23h1.54v.47Z"/>
      <path class="cls-6" d="M551.04,234.7c0,.27-.07.52-.2.75-.13.23-.31.4-.54.53s-.48.2-.75.2-.53-.07-.75-.2-.41-.31-.54-.53c-.13-.22-.2-.47-.2-.75s.06-.51.19-.73c.13-.22.31-.39.54-.52s.49-.19.79-.19h.11v2.65h-.39v-2.36l.14.19c-.17.01-.33.06-.48.14-.15.08-.26.2-.34.34-.08.14-.12.3-.12.48,0,.19.04.36.13.51s.21.26.37.35c.16.08.34.12.55.12s.39-.04.55-.12c.16-.08.29-.2.37-.35.09-.15.13-.32.13-.51,0-.22-.05-.4-.15-.55s-.23-.26-.4-.33v-.49c.17.05.33.14.48.27.15.12.27.28.36.47s.13.4.13.63Z"/>
      <path class="cls-6" d="M550.99,232.3l-2.86.61v-.48l2.43-.49v-.24l-2.43-.5v-.84l2.43-.5v-.24l-2.43-.49v-.48l2.86.61v.94l-2.43.5v.17l2.43.49v.95Z"/>
      <path class="cls-6" d="M547.69,227.78c0,.09-.03.16-.09.22-.06.06-.13.08-.21.08s-.15-.03-.21-.08c-.06-.06-.09-.13-.09-.22s.03-.15.09-.21.13-.09.21-.09.15.03.21.09.09.13.09.21ZM550.99,228.01h-2.86v-.47h2.86v.47Z"/>
      <path class="cls-6" d="M550.99,226.69h-2.86v-.45h.46v-.03c-.15-.09-.28-.23-.37-.4-.09-.17-.14-.37-.14-.59s.05-.43.14-.59c.09-.16.23-.29.41-.38.18-.09.4-.13.66-.13h1.71v.47h-1.63c-.27,0-.48.06-.63.19-.15.12-.22.31-.22.55,0,.17.04.32.11.45.08.14.18.24.32.32.14.08.3.11.48.11h1.56v.47Z"/>
      <path class="cls-6" d="M552.07,223.07h-.43v-1.9h-1.11v.03c.15.09.28.22.37.4.1.18.15.37.15.58,0,.25-.06.48-.19.68-.12.2-.3.36-.53.48-.23.12-.48.18-.77.18s-.55-.06-.77-.18c-.23-.12-.4-.28-.52-.48-.12-.2-.19-.43-.19-.68,0-.21.05-.41.15-.59.1-.18.23-.32.39-.41v-.03h-.48v-.45h3.93v2.38ZM550.61,222.07c0-.17-.04-.33-.13-.47-.08-.14-.21-.25-.37-.32-.16-.08-.35-.12-.56-.12s-.4.04-.56.12c-.16.08-.28.19-.37.32-.08.14-.13.29-.13.47,0,.19.04.35.12.5.08.14.21.25.37.33.16.08.35.12.56.12s.4-.04.56-.12c.16-.08.28-.19.37-.33.08-.14.12-.31.12-.5Z"/>
      <path class="cls-6" d="M551.05,216.76c0,.38-.09.72-.27,1.03s-.42.55-.73.73c-.31.18-.66.27-1.05.27s-.73-.09-1.05-.27c-.31-.18-.56-.42-.73-.73s-.27-.65-.27-1.03c0-.32.06-.6.19-.86s.3-.47.51-.64c.21-.17.45-.3.7-.37v.54c-.17.06-.33.16-.47.28-.14.12-.25.28-.33.45-.08.18-.12.37-.12.59,0,.29.07.55.2.77.13.23.32.41.55.54s.5.2.8.2.57-.07.8-.2c.24-.13.42-.31.55-.54.13-.23.2-.49.2-.77,0-.22-.04-.43-.13-.61-.09-.18-.2-.33-.35-.46-.14-.12-.3-.22-.48-.28v-.54c.27.08.52.2.74.38.22.18.39.4.52.66.13.26.19.55.19.86Z"/>
      <path class="cls-6" d="M551.04,212.98c0,.28-.06.52-.19.75-.13.22-.3.4-.53.52s-.48.19-.77.19-.54-.06-.77-.19c-.23-.13-.4-.3-.53-.52-.13-.22-.19-.47-.19-.75s.06-.53.19-.75c.13-.22.3-.39.53-.52.23-.12.48-.19.77-.19s.54.06.77.19c.23.12.4.3.53.52.13.22.19.47.19.75ZM550.61,212.98c0-.2-.04-.37-.13-.51s-.21-.26-.37-.34c-.16-.08-.34-.12-.56-.12s-.4.04-.56.12c-.16.08-.28.19-.37.34s-.13.32-.13.51.04.36.13.51.21.26.37.34c.16.08.34.12.56.12s.4-.04.56-.12c.16-.08.28-.19.37-.34s.13-.31.13-.51Z"/>
      <path class="cls-6" d="M550.99,210.87h-2.86v-.45h.44v-.03c-.14-.08-.26-.19-.35-.35s-.14-.33-.14-.53c0-.24.06-.43.17-.58.11-.15.25-.25.41-.31v-.03c-.16-.1-.29-.23-.41-.39-.11-.16-.17-.36-.17-.6,0-.21.05-.39.14-.54.09-.15.23-.27.41-.36.18-.08.39-.13.65-.13h1.72v.47h-1.67c-.26,0-.47.06-.6.17s-.21.28-.21.49c0,.23.08.42.23.56.15.15.37.22.64.22h1.61v.47h-1.67c-.26,0-.47.06-.6.17s-.21.28-.21.49c0,.23.08.41.23.56.16.15.37.22.64.22h1.61v.47Z"/>
      <path class="cls-6" d="M552.07,205.78h-3.93v-.45h.48v-.03c-.16-.1-.29-.24-.39-.42-.1-.18-.14-.38-.14-.59,0-.25.06-.47.19-.67.12-.2.3-.36.52-.48.22-.12.48-.18.77-.18s.55.06.77.18c.23.12.4.28.52.48.12.2.19.43.19.67,0,.22-.05.41-.14.59s-.22.31-.37.4v.03h1.54v.47ZM550.61,204.4c0-.19-.04-.35-.12-.5-.08-.14-.21-.25-.37-.33-.16-.08-.35-.12-.56-.12s-.41.04-.57.12c-.16.08-.28.19-.36.33-.08.14-.12.31-.12.5s.04.34.13.48c.08.14.21.24.37.32.16.08.35.12.56.12s.4-.04.56-.12c.16-.08.28-.18.37-.32.08-.14.13-.29.13-.48Z"/>
      <path class="cls-6" d="M551.04,201.17c0,.25-.06.47-.19.67-.12.2-.3.36-.52.48-.22.12-.48.18-.77.18s-.55-.06-.77-.18c-.23-.12-.4-.28-.52-.48-.12-.2-.19-.43-.19-.67,0-.21.05-.41.14-.59.1-.18.23-.32.39-.42v-.03h-.48v-.45h2.86v.45h-.48v.03c.16.1.29.24.39.42.1.18.14.38.14.59ZM550.61,201.06c0-.18-.04-.34-.13-.48s-.21-.24-.37-.32c-.16-.08-.35-.12-.56-.12s-.4.04-.56.12c-.16.08-.28.18-.37.32s-.13.29-.13.48.04.35.12.5c.08.14.2.25.36.33.16.08.35.12.57.12s.4-.04.56-.12c.16-.08.28-.19.37-.33.08-.14.12-.31.12-.5Z"/>
      <path class="cls-6" d="M550.99,198.85h-2.86v-.45h.46v-.03c-.15-.09-.28-.23-.37-.4-.09-.17-.14-.37-.14-.59s.05-.43.14-.59c.09-.16.23-.29.41-.38.18-.09.4-.13.66-.13h1.71v.47h-1.63c-.27,0-.48.06-.63.19-.15.12-.22.31-.22.55,0,.17.04.32.11.45.08.14.18.24.32.32.14.08.3.11.48.11h1.56v.47Z"/>
      <path class="cls-6" d="M552.07,194.72l-1.27-.38.19-.14v.82l-2.86.85v-.5l2.43-.71v-.61l.15.26-2.57-.75v-.5l3.93,1.16v.5Z"/>
    </g>
  </g>
  <g id="Info_Pills" data-name="Info Pills">
    <g>
      <path class="cls-6" d="M501.39,128.58c-3.34,0-6.06-2.78-6.06-6.22v-44.08c0-3.43,2.71-6.22,6.06-6.22s6.06,2.78,6.06,6.22v44.08c0,3.43-2.71,6.22-6.06,6.22Z"/>
      <g>
        <path class="cls-1" d="M503.51,122.86c0,.31-.06.59-.19.83-.12.24-.29.43-.51.56-.22.13-.45.2-.71.2-.14,0-.28-.02-.42-.07-.14-.04-.27-.1-.39-.16-.12-.06-.23-.13-.32-.2l-1.5-1.16v-.79l1.49,1.18-.16.27c-.04-.11-.07-.22-.09-.33s-.03-.21-.03-.33c0-.31.06-.59.18-.83.12-.24.29-.43.51-.56.21-.13.46-.2.72-.2s.5.07.71.2c.21.13.38.32.51.56.12.24.19.52.19.83ZM502.91,122.86c0-.19-.04-.35-.1-.48-.07-.14-.17-.24-.29-.31-.12-.07-.26-.11-.42-.11s-.3.04-.42.11c-.12.07-.22.18-.29.31-.07.14-.1.3-.1.48s.04.35.1.48c.07.14.17.24.29.31.12.07.26.11.42.11s.3-.04.42-.11c.12-.07.22-.18.29-.31.07-.14.1-.3.1-.48Z"/>
        <path class="cls-1" d="M503.53,120.45c0,.11-.04.21-.11.28-.08.08-.17.11-.28.11s-.21-.04-.28-.11c-.08-.08-.11-.17-.11-.28s.04-.21.11-.28c.08-.08.17-.11.28-.11s.21.04.28.11c.08.08.11.17.11.28Z"/>
        <path class="cls-1" d="M503.44,119.17l-1.49-1.18.17-.27c.04.11.07.22.09.33.02.1.03.21.03.33,0,.31-.06.59-.18.83-.12.24-.29.43-.51.56-.21.13-.46.2-.72.2s-.5-.07-.71-.2-.39-.32-.51-.56c-.12-.24-.19-.52-.19-.83s.06-.59.19-.83c.12-.24.29-.43.51-.56s.45-.2.71-.2c.14,0,.28.02.42.06.14.04.27.1.39.16.12.06.23.13.32.2l1.5,1.16v.79ZM501.63,118.38c0-.19-.04-.35-.1-.48-.07-.14-.17-.24-.29-.31s-.26-.11-.42-.11-.3.04-.42.11-.22.18-.29.31c-.07.14-.11.3-.11.48s.04.35.11.48c.07.14.17.24.29.31s.26.11.42.11.3-.04.42-.11.22-.18.29-.31c.07-.14.1-.3.1-.48Z"/>
        <path class="cls-1" d="M501.28,115.42c0,.18-.04.34-.12.48-.08.14-.2.25-.34.33-.14.08-.3.12-.47.12s-.33-.04-.47-.12c-.14-.08-.26-.19-.34-.33-.08-.14-.12-.3-.12-.48s.04-.34.12-.48c.08-.14.2-.25.34-.33.14-.08.3-.12.47-.12s.33.04.47.12c.14.08.26.19.34.33.08.14.12.3.12.48ZM503.44,115.83l-3.97-2.38v-.57l3.97,2.38v.57ZM500.82,115.42c0-.09-.02-.16-.06-.23-.04-.07-.1-.12-.17-.15-.07-.04-.15-.05-.25-.05-.14,0-.26.04-.35.12-.09.08-.13.19-.13.32,0,.09.02.16.06.23.04.07.1.12.17.15s.16.05.25.05c.14,0,.26-.04.35-.12.09-.08.13-.19.13-.32ZM503.51,113.3c0,.18-.04.34-.12.48-.08.14-.2.25-.34.33-.14.08-.3.12-.47.12s-.33-.04-.47-.12c-.14-.08-.26-.19-.34-.33-.08-.14-.12-.3-.12-.48s.04-.34.12-.48.2-.25.34-.33c.14-.08.3-.12.47-.12s.33.04.47.12c.14.08.26.19.34.33s.12.3.12.48ZM503.06,113.3c0-.09-.02-.16-.06-.23-.04-.07-.1-.12-.17-.15-.07-.04-.15-.05-.25-.05-.14,0-.26.04-.35.12s-.13.19-.13.32c0,.09.02.16.06.23.04.07.1.12.17.15.07.04.16.05.25.05.14,0,.26-.04.35-.12.09-.08.13-.19.13-.32Z"/>
        <path class="cls-1" d="M503.44,110.74l-3.97-1.15v-1.49l3.97-1.15v.67l-3.37.95v.54l3.37.95v.66ZM502.42,110.06l-.62-.19v-2.04l.62-.19v2.42Z"/>
        <path class="cls-1" d="M503.44,106.36h-3.97v-1.73c0-.25.04-.47.13-.66.09-.19.21-.33.36-.44.15-.1.33-.15.53-.15s.37.05.51.15c.14.1.25.23.32.39h.03c.06-.2.17-.37.34-.49.17-.12.37-.19.62-.19.23,0,.42.06.59.17.17.12.3.28.4.49.09.21.14.46.14.75v1.7ZM502.85,104.66c0-.15-.02-.29-.07-.4-.05-.11-.11-.2-.2-.25s-.2-.09-.32-.09-.24.03-.32.09-.15.14-.2.25c-.04.11-.06.24-.06.4v1.31h-.57v-1.31c0-.19-.05-.34-.14-.44-.09-.1-.22-.16-.38-.16-.11,0-.2.02-.27.07s-.14.12-.18.2-.06.2-.06.32v1.05h2.78v-1.05Z"/>
        <path class="cls-1" d="M503.44,101.86l-3.97,1.09v-.67l3.37-.91v-.54l-3.37-.91v-.66l3.97,1.09v1.51Z"/>
        <path class="cls-1" d="M504.02,97.13h-5.33v-.62h5.33v.62Z"/>
        <path class="cls-1" d="M503.51,92.62c0,.32-.05.59-.14.83-.1.24-.23.42-.41.54-.18.13-.38.19-.6.19s-.44-.07-.61-.2-.29-.31-.35-.54h-.03c-.08.22-.19.38-.33.49-.14.11-.32.16-.52.16-.22,0-.41-.06-.58-.18-.17-.12-.3-.29-.39-.51-.09-.22-.14-.49-.14-.79s.05-.57.14-.79c.09-.22.23-.39.39-.51.17-.12.36-.18.58-.18.2,0,.38.05.52.16.14.11.25.27.33.49h.03c.06-.23.18-.41.35-.54s.37-.2.61-.2.43.06.6.19c.18.13.31.31.41.54.1.24.14.51.14.83ZM501.08,92.62c0-.28-.04-.48-.14-.61-.09-.13-.22-.19-.39-.19s-.3.06-.39.19-.14.33-.14.61.05.48.14.61c.09.13.22.19.39.19s.3-.06.39-.19c.09-.13.14-.33.14-.61ZM502.89,92.62c0-.29-.05-.52-.15-.66-.1-.15-.25-.22-.44-.22s-.33.07-.44.22c-.1.15-.15.37-.15.66s.05.52.15.66c.1.15.25.22.44.22s.33-.07.44-.22c.1-.15.15-.37.15-.66Z"/>
        <path class="cls-1" d="M503.51,88.73c0,.35-.09.66-.26.94-.18.28-.42.5-.73.66s-.66.24-1.06.24-.75-.08-1.06-.24c-.31-.16-.56-.38-.73-.66-.18-.28-.26-.59-.26-.94s.09-.66.26-.94.42-.5.73-.66c.31-.16.66-.24,1.06-.24s.75.08,1.06.24.56.38.73.66.26.59.26.94ZM502.89,88.73c0-.22-.05-.42-.16-.6-.11-.17-.27-.31-.49-.41-.21-.1-.48-.15-.78-.15s-.57.05-.78.15-.38.24-.48.41-.16.37-.16.6.05.42.16.6.27.31.48.41.48.15.78.15.57-.05.78-.15c.22-.1.38-.24.49-.41.11-.17.16-.37.16-.6Z"/>
        <path class="cls-1" d="M503.44,84.96h-3.97v-.65h3.97v.65Z"/>
        <path class="cls-1" d="M503.44,83.34h-3.97v-1.73c0-.25.04-.47.13-.66s.21-.33.36-.44c.15-.1.33-.15.53-.15s.37.05.51.15c.14.1.25.23.32.39h.03c.06-.2.17-.37.34-.49.17-.12.37-.19.62-.19.23,0,.42.06.59.17.17.12.3.28.4.49.09.21.14.46.14.75v1.7ZM502.85,81.64c0-.15-.02-.29-.07-.4-.05-.11-.11-.2-.2-.25s-.2-.09-.32-.09-.24.03-.32.09-.15.14-.2.25c-.04.11-.06.24-.06.4v1.31h-.57v-1.31c0-.19-.05-.34-.14-.44-.09-.1-.22-.16-.38-.16-.11,0-.2.02-.27.07s-.14.12-.18.2-.06.2-.06.32v1.05h2.78v-1.05Z"/>
        <path class="cls-1" d="M503.51,77.91c0,.33-.07.61-.2.86-.13.24-.33.43-.58.56-.25.13-.55.19-.89.19h-2.36v-.65h2.36c.22,0,.41-.04.57-.11.16-.07.28-.18.36-.33.08-.14.12-.32.12-.52,0-.3-.09-.54-.27-.7-.18-.16-.44-.25-.77-.25h-2.36v-.65h2.36c.34,0,.64.06.89.19.25.13.44.31.58.55.13.24.2.52.2.85Z"/>
      </g>
    </g>
    <g>
      <path class="cls-7" d="M519.55,270.22c-3.34,0-6.06-2.78-6.06-6.22V78.28c0-3.43,2.71-6.22,6.06-6.22s6.06,2.78,6.06,6.22v185.72c0,3.43-2.71,6.22-6.06,6.22Z"/>
      <g>
        <path class="cls-6" d="M521.6,263.25h-3.97v-.65h3.97v.65ZM521.6,265.83h-3.97v-.65h3.97v.65ZM519.9,265.55h-.62v-2.63h.62v2.63Z"/>
        <path class="cls-6" d="M521.67,259.79c0,.39-.09.74-.27,1.05-.18.32-.43.56-.74.75-.31.18-.66.27-1.04.27s-.73-.09-1.04-.27c-.31-.18-.56-.43-.74-.75-.18-.32-.27-.67-.27-1.05s.09-.74.27-1.05c.18-.32.43-.56.74-.75.31-.18.66-.27,1.04-.27s.73.09,1.04.27c.31.18.56.43.74.75s.27.67.27,1.05ZM521.05,259.79c0-.26-.06-.5-.18-.71-.12-.21-.29-.38-.51-.5-.22-.12-.46-.18-.74-.18s-.52.06-.74.18c-.21.12-.38.28-.51.5-.12.21-.18.45-.18.71s.06.5.18.71c.12.21.29.38.51.5.22.12.46.18.74.18s.52-.06.74-.18c.21-.12.38-.28.51-.5.12-.21.18-.45.18-.71Z"/>
        <path class="cls-6" d="M521.6,256.99h-3.97v-1.5c0-.29.06-.55.17-.78s.27-.4.47-.53c.2-.13.43-.19.69-.19s.49.06.69.19c.2.13.36.3.47.53s.17.49.17.78v1.22h-.62v-1.22c0-.18-.03-.33-.08-.45-.05-.12-.14-.22-.24-.28-.11-.06-.23-.09-.38-.09-.23,0-.4.07-.53.21-.12.14-.18.34-.18.61v.85h3.34v.65Z"/>
        <path class="cls-6" d="M521.67,251.92c0,.53-.11.94-.33,1.23s-.54.44-.96.46v-.7c.22,0,.39-.09.51-.25.12-.16.18-.41.18-.74,0-.23-.04-.43-.14-.58-.09-.15-.22-.23-.39-.23-.13,0-.24.04-.32.13s-.15.19-.2.32-.1.3-.16.53c-.08.28-.15.52-.23.7-.08.18-.19.33-.34.46s-.35.19-.6.19c-.22,0-.42-.06-.59-.18-.17-.12-.31-.29-.4-.51-.09-.22-.14-.47-.14-.76,0-.45.1-.81.3-1.09.2-.27.49-.42.87-.44v.7c-.19.01-.34.09-.43.22-.1.13-.14.33-.14.59,0,.24.04.43.14.57.09.14.21.21.37.21.13,0,.23-.04.32-.13.08-.09.15-.19.2-.32.05-.13.1-.3.16-.52.08-.29.15-.53.23-.71s.19-.33.35-.46c.16-.13.36-.19.61-.19.23,0,.43.06.6.19s.31.3.4.53c.09.22.14.48.14.77Z"/>
      </g>
      <g>
        <path class="cls-6" d="M521.6,134.25h-3.97v-1.26l3.37-1.38v-.17h-3.37v-.65h3.97v1.26l-3.37,1.38v.17h3.37v.65Z"/>
        <path class="cls-6" d="M521.6,129.83h-3.97v-2.81h.62v2.15h2.72v-2.18h.62v2.83ZM519.9,129.55h-.62v-2.22h.62v2.22Z"/>
        <path class="cls-6" d="M521.67,124.53c0,.39-.09.74-.27,1.05-.18.32-.43.56-.74.75-.31.18-.66.27-1.04.27s-.73-.09-1.04-.27c-.31-.18-.56-.43-.74-.75-.18-.32-.27-.67-.27-1.05,0-.32.06-.61.19-.87.12-.26.3-.48.51-.65.22-.18.46-.3.73-.38v.7c-.16.06-.3.15-.42.27s-.21.25-.28.41c-.07.16-.1.33-.1.52,0,.26.06.5.18.71.12.21.29.38.51.5.22.12.46.18.74.18s.52-.06.74-.18c.21-.12.38-.28.51-.5.12-.21.18-.45.18-.71,0-.2-.04-.38-.11-.55-.07-.16-.18-.3-.31-.42-.13-.12-.28-.2-.44-.26v-.7c.29.08.55.21.77.39.22.18.4.4.52.67.12.26.19.55.19.87Z"/>
        <path class="cls-6" d="M521.6,121.18h-3.34v1.28h-.62v-3.2h.62v1.28h3.34v.65Z"/>
        <path class="cls-6" d="M521.6,119.34l-3.97-1.15v-1.49l3.97-1.15v.67l-3.37.95v.54l3.37.95v.66ZM520.58,118.66l-.62-.19v-2.04l.62-.19v2.42Z"/>
        <path class="cls-6" d="M521.6,114.96h-3.97v-1.63c0-.28.05-.54.16-.76.11-.22.26-.39.45-.52.19-.12.41-.18.66-.18s.47.06.66.18c.19.12.34.29.45.52.11.22.16.47.16.76v1.37h-.62v-1.37c0-.17-.02-.31-.07-.43-.05-.12-.12-.2-.22-.26s-.22-.09-.36-.09c-.21,0-.37.07-.48.2s-.17.33-.17.58v.98h3.34v.65ZM521.6,112.55l-1.72,1.15v-.74l1.72-1.17v.76Z"/>
        <path class="cls-6" d="M521.67,109.35c0,.39-.09.74-.27,1.05-.18.32-.43.56-.74.75-.31.18-.66.27-1.04.27s-.73-.09-1.04-.27c-.31-.18-.56-.43-.74-.75-.18-.32-.27-.67-.27-1.05s.09-.74.27-1.05c.18-.32.43-.56.74-.75.31-.18.66-.27,1.04-.27s.73.09,1.04.27c.31.18.56.43.74.75s.27.67.27,1.05ZM521.05,109.35c0-.26-.06-.5-.18-.71-.12-.21-.29-.38-.51-.5-.22-.12-.46-.18-.74-.18s-.52.06-.74.18c-.21.12-.38.28-.51.5-.12.21-.18.45-.18.71s.06.5.18.71c.12.21.29.38.51.5.22.12.46.18.74.18s.52-.06.74-.18c.21-.12.38-.28.51-.5.12-.21.18-.45.18-.71Z"/>
        <path class="cls-6" d="M521.6,106.54h-3.97v-1.26l3.37-1.38v-.17h-3.37v-.65h3.97v1.26l-3.37,1.38v.17h3.37v.65Z"/>
        <path class="cls-6" d="M522.06,102.24c-.02-.07-.06-.12-.11-.17s-.12-.07-.18-.08c-.07-.01-.13-.01-.2,0l.02-.23s.04.05.06.1c.02.04.03.08.03.13,0,.11-.04.2-.11.27-.08.08-.17.11-.27.11s-.2-.04-.27-.11c-.07-.08-.11-.17-.11-.29,0-.13.05-.24.14-.32.09-.09.22-.13.39-.13s.31.03.44.09c.13.06.24.14.32.25.08.11.13.23.15.37h-.28Z"/>
        <path class="cls-6" d="M521.6,99.46h-3.97v-1.26l3.37-1.38v-.17h-3.37v-.65h3.97v1.26l-3.37,1.38v.17h3.37v.65Z"/>
        <path class="cls-6" d="M521.6,95.04h-3.97v-2.81h.62v2.15h2.72v-2.18h.62v2.83ZM519.9,94.76h-.62v-2.22h.62v2.22Z"/>
        <path class="cls-6" d="M521.6,91.46h-3.97v-.65h3.34v-2.01h.62v2.66Z"/>
        <path class="cls-6" d="M521.67,86.88c0,.53-.11.94-.33,1.23s-.54.44-.96.46v-.7c.22,0,.39-.09.51-.25.12-.16.18-.41.18-.74,0-.23-.04-.43-.14-.58-.09-.15-.22-.23-.39-.23-.13,0-.24.04-.32.13s-.15.19-.2.32c-.05.13-.1.3-.16.53-.08.28-.15.52-.23.7-.08.18-.19.34-.34.46-.15.13-.35.19-.6.19-.22,0-.42-.06-.59-.18-.17-.12-.31-.29-.4-.51-.09-.22-.14-.47-.14-.76,0-.45.1-.81.3-1.09.2-.27.49-.42.87-.44v.7c-.19.02-.34.09-.43.22s-.14.33-.14.6c0,.24.04.43.14.57.09.14.21.21.37.21.13,0,.23-.04.32-.13s.15-.19.2-.32c.05-.13.1-.3.16-.52.08-.29.15-.53.23-.71.08-.18.19-.33.35-.46.16-.13.36-.19.61-.19.23,0,.43.06.6.19.17.13.31.3.4.53.09.23.14.48.14.77Z"/>
        <path class="cls-6" d="M521.67,82.85c0,.39-.09.74-.27,1.05-.18.32-.43.56-.74.75-.31.18-.66.27-1.04.27s-.73-.09-1.04-.27c-.31-.18-.56-.43-.74-.75-.18-.32-.27-.67-.27-1.05s.09-.74.27-1.05c.18-.32.43-.56.74-.75.31-.18.66-.27,1.04-.27s.73.09,1.04.27c.31.18.56.43.74.75s.27.67.27,1.05ZM521.05,82.85c0-.26-.06-.5-.18-.71-.12-.21-.29-.38-.51-.5-.22-.12-.46-.18-.74-.18s-.52.06-.74.18c-.21.12-.38.28-.51.5-.12.21-.18.45-.18.71s.06.5.18.71c.12.21.29.38.51.5.22.12.46.18.74.18s.52-.06.74-.18c.21-.12.38-.28.51-.5.12-.21.18-.45.18-.71Z"/>
        <path class="cls-6" d="M521.6,80.04h-3.97v-1.26l3.37-1.38v-.17h-3.37v-.65h3.97v1.26l-3.37,1.38v.17h3.37v.65Z"/>
      </g>
      <line class="cls-7" x1="519.55" y1="245.68" x2="519.55" y2="139.32"/>
    </g>
    <g>
      <path class="cls-8" d="M144.35,270.22c-3.34,0-6.06-2.78-6.06-6.22V78.37c0-3.43,2.71-6.22,6.06-6.22s6.06,2.78,6.06,6.22v185.64c0,3.43-2.71,6.22-6.06,6.22Z"/>
      <g>
        <path class="cls-5" d="M146.4,265.28l-3.97.87v-.66l3.37-.71v-.18l-3.37-.69v-1.18l3.37-.69v-.18l-3.37-.71v-.65l3.97.87v1.17l-3.37.69v.19l3.37.69v1.17Z"/>
        <path class="cls-5" d="M146.4,259.84h-3.97v-2.81h.62v2.15h2.72v-2.18h.62v2.83ZM144.7,259.56h-.62v-2.22h.62v2.22Z"/>
        <path class="cls-5" d="M146.47,254.92c0,.53-.11.94-.33,1.23s-.54.44-.96.46v-.7c.22,0,.39-.09.51-.25.12-.16.18-.41.18-.74,0-.23-.04-.43-.14-.58s-.22-.23-.39-.23c-.13,0-.24.04-.32.13-.08.08-.15.19-.2.32-.05.13-.1.3-.16.53-.08.28-.15.52-.23.7-.08.18-.19.33-.34.46-.15.13-.35.19-.6.19-.22,0-.42-.06-.59-.18-.17-.12-.3-.29-.4-.51-.09-.22-.14-.47-.14-.76,0-.45.1-.81.3-1.08.2-.27.49-.42.87-.44v.7c-.19.01-.34.09-.43.22-.1.13-.14.33-.14.6,0,.24.05.43.14.57s.21.21.37.21c.13,0,.23-.04.32-.13s.15-.19.2-.32c.05-.13.1-.3.16-.52.08-.29.15-.53.23-.71.08-.18.19-.33.35-.46s.36-.19.61-.19c.23,0,.43.06.6.19.17.13.31.3.4.53.09.23.14.48.14.77Z"/>
        <path class="cls-5" d="M146.4,251.84h-3.34v1.28h-.62v-3.2h.62v1.28h3.34v.65Z"/>
        <path class="cls-5" d="M146.47,246.37c0,.39-.09.74-.27,1.05-.18.32-.43.56-.74.75-.31.18-.66.27-1.04.27s-.73-.09-1.04-.27c-.31-.18-.56-.43-.74-.75-.18-.32-.27-.67-.27-1.05,0-.32.06-.61.19-.87.12-.26.3-.48.51-.65.22-.18.46-.3.73-.38v.7c-.16.06-.3.15-.42.27-.12.12-.21.25-.28.41s-.1.33-.1.52c0,.26.06.5.18.71.12.21.29.38.51.5.21.12.46.18.74.18s.52-.06.74-.18c.21-.12.38-.28.51-.5.12-.21.18-.45.18-.71,0-.2-.04-.38-.11-.55-.07-.16-.18-.3-.31-.42-.13-.12-.28-.2-.44-.26v-.7c.29.08.55.21.77.39s.4.4.52.67c.12.27.19.55.19.87Z"/>
        <path class="cls-5" d="M146.47,241.89c0,.39-.09.74-.27,1.05s-.43.56-.74.75c-.31.18-.66.27-1.04.27s-.73-.09-1.04-.27c-.31-.18-.56-.43-.74-.75-.18-.32-.27-.67-.27-1.05s.09-.74.27-1.05c.18-.32.43-.56.74-.75.31-.18.66-.27,1.04-.27s.73.09,1.04.27c.31.18.56.43.74.75.18.31.27.67.27,1.05ZM145.85,241.89c0-.26-.06-.5-.18-.71-.12-.21-.29-.38-.51-.5-.22-.12-.46-.18-.74-.18s-.52.06-.74.18c-.22.12-.38.28-.51.5s-.18.45-.18.71.06.5.18.71c.12.21.29.38.51.5.21.12.46.18.74.18s.52-.06.74-.18c.21-.12.38-.29.51-.5.12-.21.18-.45.18-.71Z"/>
        <path class="cls-5" d="M146.4,239.68l-3.97-1.14v-1.49l3.97-1.15v.67l-3.37.95v.54l3.37.95v.66ZM145.38,239l-.62-.19v-2.04l.62-.19v2.42Z"/>
        <path class="cls-5" d="M146.47,233.9c0,.53-.11.94-.33,1.23s-.54.44-.96.46v-.7c.22,0,.39-.09.51-.25.12-.16.18-.41.18-.74,0-.23-.04-.43-.14-.58-.09-.15-.22-.23-.39-.23-.13,0-.24.04-.32.13s-.15.19-.2.32-.1.3-.16.53c-.08.28-.15.52-.23.7-.08.18-.19.33-.34.46s-.35.19-.6.19c-.22,0-.42-.06-.59-.18-.17-.12-.3-.29-.4-.51s-.14-.47-.14-.76c0-.45.1-.81.3-1.09.2-.27.49-.42.87-.44v.7c-.19.01-.34.09-.43.22-.1.13-.14.33-.14.59,0,.24.05.43.14.57.09.14.21.21.37.21.13,0,.23-.04.32-.13.08-.09.15-.19.2-.32.05-.13.1-.3.16-.52.08-.29.15-.53.23-.71s.19-.33.35-.46c.16-.13.36-.19.61-.19.23,0,.43.06.6.19s.31.3.4.53c.09.22.14.48.14.77Z"/>
        <path class="cls-5" d="M146.4,230.83h-3.34v1.28h-.62v-3.2h.62v1.28h3.34v.65Z"/>
        <path class="cls-5" d="M146.4,226.97h-3.97v-.65h3.97v.65Z"/>
        <path class="cls-5" d="M146.4,225.36h-3.97v-1.5c0-.29.06-.56.17-.78s.27-.4.47-.53.43-.19.69-.19.49.06.69.19.36.3.47.53.17.49.17.78v1.22h-.62v-1.22c0-.18-.03-.33-.08-.45-.05-.12-.14-.21-.24-.28s-.23-.09-.38-.09c-.23,0-.4.07-.52.21s-.18.34-.18.61v.85h3.34v.65Z"/>
        <path class="cls-5" d="M146.4,222.3l-3.97-1.15v-1.49l3.97-1.15v.67l-3.37.95v.54l3.37.95v.66ZM145.38,221.62l-.62-.19v-2.04l.62-.19v2.42Z"/>
      </g>
      <g>
        <path class="cls-5" d="M146.47,119.11c0,.39-.09.74-.27,1.05-.18.32-.43.56-.74.75-.31.18-.66.27-1.04.27s-.73-.09-1.04-.27c-.31-.18-.56-.43-.74-.75-.18-.32-.27-.67-.27-1.05,0-.32.06-.61.19-.87.12-.26.3-.48.51-.65.22-.18.46-.3.73-.38v.7c-.16.06-.3.15-.42.27-.12.12-.21.25-.28.41s-.1.33-.1.52c0,.26.06.5.18.71.12.21.29.38.51.5.21.12.46.18.74.18s.52-.06.74-.18c.21-.12.38-.28.51-.5.12-.21.18-.45.18-.71,0-.2-.04-.38-.11-.55-.07-.16-.18-.3-.31-.42-.13-.12-.28-.2-.44-.26v-.7c.29.08.55.21.77.39.22.18.4.4.52.67s.19.55.19.87Z"/>
        <path class="cls-5" d="M146.4,116.47h-3.97v-1.63c0-.28.05-.54.16-.76s.26-.39.45-.52c.19-.12.41-.18.66-.18s.47.06.66.18c.19.12.34.29.45.52.11.22.16.47.16.76v1.37h-.62v-1.37c0-.17-.02-.31-.07-.43-.05-.12-.12-.2-.22-.26s-.22-.09-.36-.09c-.21,0-.37.07-.49.2-.11.13-.17.33-.17.58v.98h3.34v.65ZM146.4,114.06l-1.72,1.15v-.74l1.72-1.17v.76Z"/>
        <path class="cls-5" d="M146.4,112.56h-3.97v-.65h3.97v.65Z"/>
        <path class="cls-5" d="M146.47,109.48c0,.53-.11.94-.33,1.23s-.54.44-.96.46v-.7c.22,0,.39-.09.51-.25.12-.16.18-.41.18-.74,0-.23-.04-.43-.14-.58-.09-.15-.22-.23-.39-.23-.13,0-.24.04-.32.13s-.15.19-.2.32c-.05.13-.1.3-.16.53-.08.28-.15.52-.23.7-.08.18-.19.34-.34.46-.15.13-.35.19-.6.19-.22,0-.42-.06-.59-.18-.17-.12-.3-.29-.4-.51-.09-.22-.14-.47-.14-.76,0-.45.1-.81.3-1.09.2-.27.49-.42.87-.44v.7c-.19.02-.34.09-.43.22-.1.13-.14.33-.14.6,0,.24.05.43.14.57.09.14.21.21.37.21.13,0,.23-.04.32-.13s.15-.19.2-.32c.05-.13.1-.3.16-.52.08-.29.15-.53.23-.71.08-.18.19-.33.35-.46.16-.13.36-.19.61-.19.23,0,.43.06.6.19.17.13.31.3.4.53.09.23.14.48.14.77Z"/>
        <path class="cls-5" d="M146.4,107.23h-3.97v-1.5c0-.29.06-.56.17-.78s.27-.4.47-.53c.2-.13.43-.19.69-.19s.49.06.69.19c.2.13.36.3.47.53s.17.49.17.78v1.22h-.62v-1.22c0-.18-.03-.33-.08-.45-.05-.12-.14-.22-.24-.28-.11-.06-.23-.09-.38-.09-.23,0-.4.07-.52.21-.12.14-.18.34-.18.61v.85h3.34v.65Z"/>
        <path class="cls-5" d="M146.4,102.27h-3.97v-1.26l3.37-1.38v-.17h-3.37v-.65h3.97v1.26l-3.37,1.38v.17h3.37v.65Z"/>
        <path class="cls-5" d="M143.53,97.99c-.02-.07-.06-.12-.11-.17s-.12-.07-.18-.08-.13-.01-.2,0l.02-.23s.04.05.06.1c.02.04.03.08.03.13,0,.11-.04.2-.11.27-.08.08-.17.11-.27.11s-.2-.04-.28-.11c-.07-.08-.11-.17-.11-.29,0-.13.05-.24.14-.32.09-.09.22-.13.39-.13.16,0,.31.03.44.09.13.06.24.14.32.25.08.11.13.23.15.37h-.28Z"/>
        <path class="cls-5" d="M146.47,93.57c0,.39-.09.74-.27,1.05-.18.32-.43.56-.74.75-.31.18-.66.27-1.04.27s-.73-.09-1.04-.27c-.31-.18-.56-.43-.74-.75-.18-.32-.27-.67-.27-1.05,0-.32.06-.61.19-.87.12-.26.3-.48.51-.65.22-.18.46-.3.73-.38v.7c-.16.06-.3.15-.42.27-.12.12-.21.25-.28.41s-.1.33-.1.52c0,.26.06.5.18.71.12.21.29.38.51.5.21.12.46.18.74.18s.52-.06.74-.18c.21-.12.38-.28.51-.5.12-.21.18-.45.18-.71,0-.2-.04-.38-.11-.55-.07-.16-.18-.3-.31-.42-.13-.12-.28-.2-.44-.26v-.7c.29.08.55.21.77.39.22.18.4.4.52.67s.19.55.19.87Z"/>
        <path class="cls-5" d="M146.4,90.93h-3.97v-.65h3.34v-2.01h.62v2.66Z"/>
        <path class="cls-5" d="M146.4,87.7h-3.97v-2.81h.62v2.15h2.72v-2.18h.62v2.83ZM144.7,87.42h-.62v-2.22h.62v2.22Z"/>
        <path class="cls-5" d="M146.4,84.5l-3.97-1.15v-1.49l3.97-1.15v.67l-3.37.95v.54l3.37.95v.66ZM145.38,83.82l-.62-.19v-2.04l.62-.19v2.42Z"/>
        <path class="cls-5" d="M146.4,80.12h-3.97v-1.26l3.37-1.38v-.17h-3.37v-.65h3.97v1.26l-3.37,1.38v.17h3.37v.65Z"/>
      </g>
      <line class="cls-8" x1="144.35" y1="214.21" x2="144.35" y2="125.98"/>
    </g>
  </g>
  <g id="Logos_Icons" data-name="Logos &amp;amp; Icons">
    <g>
      <polygon class="cls-6" points="499.18 222.66 499.18 220.95 498.2 220.95 498.2 222.66 496.35 222.66 496.35 223.72 498.2 223.72 498.2 225.15 499.18 225.15 499.18 223.72 504.66 223.72 504.66 220.56 503.68 220.56 503.68 222.66 499.18 222.66"/>
      <path class="cls-6" d="M498.08,227.64c0,.5.11.95.32,1.33.21.38.49.68.84.9v.06h-1.04v1.01h6.45v-1.06h-3.53c-.61,0-1.11-.19-1.5-.56-.38-.38-.58-.85-.58-1.43,0-.55.17-.96.51-1.24.33-.28.81-.42,1.42-.42h3.67v-1.06h-3.85c-.87,0-1.54.22-2.01.67-.48.44-.72,1.04-.72,1.82Z"/>
      <path class="cls-6" d="M498.51,233.21c-.29.5-.44,1.05-.44,1.65s.15,1.18.45,1.69c.29.5.69.9,1.2,1.2.51.29,1.08.44,1.7.44s1.19-.14,1.7-.44c.51-.3.92-.7,1.22-1.2.29-.51.44-1.08.44-1.69,0-.79-.21-1.45-.64-1.98-.43-.55-.95-.92-1.56-1.11v1.11c.37.15.67.4.9.74.22.33.33.75.33,1.24,0,.6-.19,1.1-.56,1.5-.38.4-.87.64-1.48.7v-5.45h-.26c-.67,0-1.26.14-1.78.44-.52.28-.93.67-1.22,1.16ZM500.88,237.03c-.55-.1-1-.35-1.33-.73-.33-.39-.5-.87-.5-1.43s.17-1.03.51-1.41c.34-.38.78-.63,1.32-.73v4.3Z"/>
      <path class="cls-6" d="M499.05,241.81c0-.49.13-.9.4-1.25.26-.35.58-.59.96-.73v-1.09c-.4.09-.78.28-1.13.55-.36.26-.65.61-.87,1.05-.22.43-.33.92-.33,1.47,0,.62.15,1.19.44,1.7.29.5.69.9,1.2,1.19s1.08.44,1.72.44,1.2-.15,1.72-.44.91-.69,1.2-1.19c.29-.51.44-1.08.44-1.7,0-.55-.11-1.05-.33-1.47-.22-.44-.51-.79-.86-1.05-.36-.27-.74-.46-1.14-.55v1.09c.38.14.71.38.97.73.26.35.38.77.38,1.25,0,.66-.22,1.19-.65,1.6-.44.41-1.02.61-1.73.61s-1.28-.2-1.72-.61c-.44-.41-.67-.94-.67-1.6Z"/>
      <path class="cls-6" d="M499.24,253.99v.06c-.34.2-.62.51-.83.91-.22.39-.33.83-.33,1.32,0,.56.14,1.08.42,1.54.28.45.68.81,1.19,1.08.5.26,1.08.4,1.74.4s1.24-.13,1.75-.4c.5-.26.9-.62,1.18-1.08.28-.46.42-.97.42-1.54,0-.48-.11-.92-.32-1.33-.22-.41-.52-.73-.88-.95v-.06h1.08v-1.01h-8.3v1.06h2.89ZM503.17,254.57c.43.38.64.87.64,1.48,0,.65-.21,1.16-.64,1.55-.43.38-1.01.58-1.74.58s-1.32-.19-1.74-.58c-.43-.38-.64-.9-.64-1.55,0-.61.21-1.11.64-1.48.43-.38,1.01-.58,1.74-.58s1.31.19,1.74.58Z"/>
      <path class="cls-6" d="M498.51,247.28c-.29.49-.44,1.05-.44,1.65s.15,1.18.45,1.69c.29.5.69.9,1.2,1.2.51.29,1.08.44,1.7.44s1.19-.15,1.7-.44c.51-.3.92-.7,1.22-1.2.29-.51.44-1.08.44-1.69,0-.79-.21-1.45-.64-1.98-.43-.55-.95-.92-1.56-1.11v1.11c.37.15.67.4.9.74.22.33.33.75.33,1.24,0,.6-.19,1.1-.56,1.5-.38.4-.87.64-1.48.7v-5.45h-.26c-.67,0-1.26.15-1.78.44-.52.28-.93.67-1.22,1.16ZM500.88,251.09c-.55-.1-1-.35-1.33-.73-.33-.39-.5-.87-.5-1.43s.17-1.03.51-1.41c.34-.38.78-.63,1.32-.73v4.3Z"/>
      <path class="cls-6" d="M495.47,263.4c-.1.1-.15.23-.15.37v1.73c0,.19.16.35.35.35h1.38c.19,0,.35.16.35.35v1.73c0,.14.06.27.15.37l1.77,1.77c.1.1.23.15.37.15h3.58c.19,0,.35-.16.35-.35v-1.49c0-.19-.16-.35-.35-.35h-3.45c-.19,0-.35-.16-.35-.35v-1.49c0-.19-.16-.35-.35-.35h-1.29c-.19,0-.35-.16-.35-.35v-1.49c0-.19.16-.35.35-.35h5.44c.19,0,.35.16.35.35v3.67c0,.19.16.35.35.35h1.38c.19,0,.35-.16.35-.35v-3.9c0-.14-.05-.27-.15-.37l-1.77-1.78c-.1-.1-.23-.15-.37-.15h-5.86c-.09,0-.18.04-.25.1l-1.82,1.82Z"/>
      <path class="cls-6" d="M497.27,211.05c2.42,0,3.23.82,3.22,3.24,0-2.42.82-3.23,3.24-3.22-2.42,0-3.23-.82-3.22-3.24,0,2.42-.82,3.23-3.24,3.22Z"/>
      <path class="cls-6" d="M502.78,193.27c-.07.07-.12.08-.2.02-.43-.33-.91-.54-1.44-.64-.22-.04-.44-.05-.67-.08-.07,0-.08.04-.08.09,0,.15,0,.31,0,.47,0,.09.04.12.13.12.41,0,.79.11,1.16.28.12.05.12.08.03.17-.44.44-.88.88-1.32,1.32q-.1.1-.2,0c-.93-.93-1.85-1.85-2.78-2.78-.05-.05-.12-.1-.19-.12-.42-.14-.84-.27-1.27-.4-.13-.04-.27-.08-.42-.13.02.07.02.11.03.15.15.5.31,1,.47,1.5.02.07.05.15.1.2.68.69,1.37,1.37,2.05,2.06.25.25.51.5.76.75q.1.1,0,.21c-.92.92-1.83,1.83-2.75,2.75-.06.06-.1.14-.13.22-.08.22-.15.45-.22.68-.1.33-.2.66-.3.99.02,0,.04,0,.07,0,.22-.07.44-.13.65-.2.34-.11.68-.21,1.02-.32.05-.02.1-.06.14-.1.93-.92,1.85-1.84,2.77-2.77q.1-.1.21,0c.44.44.87.87,1.3,1.3.09.09.09.1-.03.16-.36.17-.74.26-1.13.27-.09,0-.12.04-.11.12,0,.14,0,.29,0,.43,0,.09.03.13.12.12.34-.01.66-.07.98-.17.39-.12.75-.3,1.07-.55.05-.04.1-.05.14,0,.56.56,1.12,1.12,1.68,1.68,0,0,.45.45.46.45.1-.07.37-.38.42-.44.02-.02.04-.05.06-.07.1-.11.11-.11,0-.22-.66-.66-1.32-1.32-1.98-1.98q-.1-.1-.01-.21c.46-.62.68-1.31.72-2.07,0-.08-.02-.13-.12-.12-.15,0-.3,0-.44,0-.08,0-.12.03-.12.11-.03.41-.12.81-.3,1.19-.06.12-.07.12-.16.03-.45-.44-.89-.89-1.34-1.33-.06-.06-.07-.1,0-.16.45-.45.9-.89,1.35-1.34.03-.03.06-.05.1-.08.02.04.05.07.06.11.17.37.27.75.27,1.15,0,.08.03.12.12.12.15,0,.3,0,.45,0,.08,0,.12-.03.11-.12,0-.12,0-.25-.02-.37-.08-.61-.3-1.17-.66-1.67q-.09-.12.02-.23c.66-.66,1.33-1.32,1.99-1.99.09-.1.09-.1-.01-.2-.14-.13-.27-.26-.4-.39-.1-.11-.1-.11-.21,0-.66.66-1.33,1.32-1.99,1.99ZM496.42,192.25s.01-.01.02-.02c.22.07.43.13.65.2.04.02.08.05.11.08.92.92,1.84,1.83,2.75,2.75.06.07.07.11,0,.17-.03.03-.07.07-.1.1-.06.07-.11.06-.17,0-.4-.4-.79-.8-1.19-1.21-.66-.66-1.33-1.32-1.99-1.99-.03-.03-.05-.06-.08-.09ZM499.1,195.95c-.89-.89-1.77-1.78-2.66-2.68-.04-.05-.08-.1-.1-.16-.07-.2-.13-.4-.19-.59.01,0,.02-.01.03-.02.02.02.05.04.07.07,1.07,1.07,2.13,2.13,3.2,3.19.09.09.09.1,0,.19q-.18.18-.35,0ZM502.31,198.76c-.18.18-.22.18-.4,0-.44-.44-.87-.87-1.3-1.3-.09-.09-.09-.1,0-.19.04-.04.08-.08.12-.12.02-.02.03-.03.06-.04.03.02.06.03.08.06.48.48.96.96,1.45,1.44.05.05.05.09,0,.14ZM501.36,196.66c.47.47.95.95,1.42,1.42.05.05.06.09.02.16-.17.23-.16.23-.36.03-.41-.41-.83-.82-1.24-1.24-.22-.21-.18-.18,0-.37.02-.02.05-.04.08-.07.03.02.05.04.07.05ZM502.72,194.35c.16.17.16.17,0,.33-1.27,1.27-2.55,2.55-3.82,3.82-.55.55-1.1,1.11-1.64,1.66-.03.03-.07.08-.12.09-.23.08-.46.15-.69.22,0,0-.01-.02-.02-.02.02-.03.04-.05.07-.08,2.01-2.01,4.03-4.02,6.04-6.03q.09-.09.19,0ZM502.21,193.84c.2.17.22.13.03.32-1.99,1.98-3.98,3.97-5.96,5.95-.03.03-.05.07-.07.1-.01,0-.02-.02-.03-.03.07-.23.14-.45.21-.67.01-.03.04-.07.07-.09,1.86-1.86,3.72-3.71,5.58-5.57.07-.07.12-.07.19-.01Z"/>
      <path class="cls-6" d="M500.46,175.6c.01.06,0,.1-.06.12-.03.01-.05.05-.07.08-.02.05-.03.12-.04.17-.05.19-.17.3-.33.3h-3.9c-.1,0-.19-.04-.24-.13-.05-.09-.08-.2-.11-.3-.02-.07-.02-.15-.11-.14-.1,0-.08.09-.1.15,0,.01,0,.03,0,.04,0,.2.02.4.03.6,0,.28,0,.56,0,.84,0,.18-.01.37-.02.55,0,.05-.01.11,0,.16.01.03.06.08.08.08.04,0,.08-.04.1-.08.02-.05.02-.12.04-.19.07-.22.18-.31.41-.31h3.72c.22,0,.38.13.42.34.01.05.02.11.04.16.02.03.06.07.08.07.03,0,.07-.05.08-.08.01-.02,0-.06,0-.08,0-.21-.01-.41-.02-.62,0-.03.03-.09.04-.09.12.01.13-.08.15-.16.01-.04.02-.08.03-.12.09-.25.3-.47.62-.46.58.02,1.16,0,1.74,0,.28,0,.56.03.84.11.55.17.91.5.98,1.1.04.44-.1.79-.47,1.05-.37.26-.79.34-1.22.35-.71.02-1.42,0-2.13,0-.18,0-.3-.09-.35-.26-.02-.07-.03-.14-.06-.2-.02-.03-.04-.08-.08-.1-.07-.03-.08-.07-.08-.13,0-.04,0-.08,0-.12,0-.05,0-.12-.08-.12-.08,0-.09.05-.1.11-.06.29-.22.51-.49.65-.34.17-.67.35-1.01.52-.77.4-1.53.8-2.3,1.21-.24.13-.49.25-.72.4-.24.15-.35.37-.35.65,0,.42,0,.84,0,1.26,0,.03,0,.05,0,.08.02.03.03.07.06.07.03,0,.07,0,.09-.02.02-.02.03-.06.04-.09.07-.29.2-.54.47-.69.37-.21.73-.41,1.1-.61.04-.02.11-.03.15-.01.41.18.82.35,1.21.54.39.19.74.44,1.01.78.23.29.29.61.19.96-.08.28-.27.5-.47.7-.31.3-.66.55-1.05.74-.18.09-.33.06-.45-.1-.08-.11-.16-.22-.24-.33-.2-.29-.45-.52-.77-.66-.44-.2-.99-.1-1.26.25-.27.35-.31.76-.22,1.18.07.34.27.62.51.86.21.2.46.38.68.56.02.02.04.03.06.05,0,0,0,.02,0,.02-.15,0-.29,0-.44,0-.19,0-.34.07-.47.21-.1.12-.14.26-.14.41,0,.38-.01.76-.02,1.14,0,.02,0,.03,0,.05.02.03.04.07.07.07.03,0,.07-.02.1-.05.02-.02.02-.06.03-.09.07-.3.34-.52.65-.52h3.52c.19,0,.3.09.37.25.03.09.05.19.08.29.02.07.07.1.12.07.03-.02.05-.08.05-.12,0-.44-.02-.88-.02-1.32,0-.27.01-.54.02-.82,0-.06-.02-.11-.08-.12-.07,0-.08.04-.1.1-.02.08-.04.18-.08.25-.08.15-.22.18-.37.18-.76,0-1.52,0-2.28,0-.18,0-.34-.01-.5-.11-.06-.03-.13-.07-.19-.1-.28-.18-.52-.4-.67-.71-.09-.2-.06-.39.08-.56.32-.36.89-.41,1.26-.1.13.12.25.26.36.4.1.12.18.24.27.36.17.21.32.25.56.12.24-.14.47-.29.7-.45.46-.33.85-.73,1.1-1.24.01-.02.03-.04.05-.07.04.05.07.1.09.14.25.38.57.67.98.87.52.25,1.06.32,1.63.27.45-.04.87-.15,1.26-.38.6-.35.96-.89,1.05-1.56.05-.38.06-.78-.02-1.16-.11-.47-.27-.92-.57-1.3-.09-.11-.19-.17-.34-.17-.37.01-.75.02-1.13.02-.2,0-.35-.09-.44-.27-.02-.05-.02-.1-.05-.15-.02-.03-.07-.06-.1-.06-.02,0-.07.05-.07.08,0,.08,0,.17,0,.26,0,.33.02.65.02.98s-.02.65-.03.97c0,.07,0,.13.09.13.08,0,.08-.06.1-.12.04-.13.07-.26.14-.38.08-.13.2-.23.37-.23.48,0,.96,0,1.43,0,.08,0,.12.03.15.1.17.33.06.72-.14.99-.24.31-.56.5-.93.64-.71.26-1.43.32-2.16.19-.34-.06-.66-.18-.94-.4-.15-.12-.26-.28-.32-.48-.07-.22-.09-.44-.03-.66.1-.39.33-.7.64-.95.14-.11.3-.19.46-.28.05-.03.11-.05.1-.13,0-.08-.07-.06-.13-.07h-.07c-.43.01-.87.03-1.3.04,0,0-.02,0-.03,0-.03.02-.08.04-.08.07,0,.03.02.07.05.1.02.02.06.03.08.05.13.1.11.23.08.37-.05.21-.1.42-.15.64,0,.02-.02.04-.03.08-.73-.74-1.62-1.16-2.56-1.51,0,0,0-.02-.03-.05.02-.01.05-.03.07-.04.22-.12.45-.23.68-.34.46-.23.92-.47,1.38-.7.13-.07.2-.05.29.07.04.05.07.1.09.16.03.09.04.19.07.28.02.08.23.16.29.11.02-.02.03-.05.04-.08.03-.1.05-.2.1-.3.05-.12.15-.18.29-.18.73,0,1.46,0,2.19-.02.5,0,.98-.09,1.42-.34.62-.34.96-.87.99-1.58,0-.18,0-.36,0-.54,0-.14-.02-.29-.05-.43-.13-.5-.44-.85-.88-1.1-.45-.24-.93-.33-1.43-.34-.65-.01-1.3,0-1.96,0-.34,0-.58-.19-.64-.53-.02-.08-.05-.13-.13-.12-.08.01-.08.08-.07.15Z"/>
      <path class="cls-6" d="M503.87,167.89s.03.07.06.09c.03.02.07.02.11.03.53.14.89.47,1,1.01.07.34.05.69.07,1.03,0,.15,0,.15-.15.15-1.26,0-2.53,0-3.8,0-.29,0-.4-.12-.46-.41-.02-.07-.01-.16-.11-.16-.11,0-.08.1-.08.17,0,.49.02.97.02,1.45,0,.07-.01.14-.02.21,0,0-.02,0-.03,0-.08-.32-.26-.59-.47-.85-.24-.29-.53-.52-.88-.68-.47-.22-.97-.32-1.5-.3-.49.02-.96.12-1.38.39-.72.46-1.01,1.14-.84,1.94.1.47.34.87.74,1.16.02.02.05.02.07.03,0,.01-.01.02-.02.03-.03,0-.07.02-.1.03-.34.02-.49.22-.53.49,0,.05-.02.11-.02.16v1.11c0,.07,0,.14.09.15.09.01.1-.06.11-.12.06-.32.37-.54.66-.53,1.15.01,2.29.01,3.44,0,.31,0,.39.13.47.36.01.03.02.07.03.11.04.17.06.18.24.17.07,0,.1-.04.11-.11.01-.08.03-.17.06-.24.06-.14.16-.23.32-.23h3.83c.17,0,.28.08.34.22.03.08.04.17.06.25.02.06.04.1.11.1.07,0,.08-.05.08-.11,0-.15,0-.31,0-.46v-1.3c0-.15,0-.3,0-.45,0-.03-.05-.07-.08-.1-.03.03-.07.06-.1.1-.02.02,0,.05,0,.08-.02.22-.19.39-.4.39h-3.82c-.12,0-.22-.05-.28-.15-.05-.08-.08-.17-.1-.25-.02-.08-.02-.15-.1-.19-.02-.01-.03-.06-.03-.09,0-.13,0-.27,0-.41,0-.04.04-.07.07-.11.02-.03.05-.07.07-.11.03-.1.05-.2.1-.29.05-.11.15-.16.27-.17.22,0,.44-.02.66-.02.45,0,.9.01,1.35.02.61,0,1.21,0,1.82,0,.16,0,.27.06.33.2.03.09.06.18.08.28.01.07.04.12.12.12.08,0,.09-.06.09-.12v-.12c0-.55-.01-1.09,0-1.64.02-.55.02-1.1-.03-1.65-.05-.46-.26-.64-.67-.69-.24-.03-.48-.03-.72-.04-.04,0-.08-.01-.12,0-.03.02-.08.05-.09.08ZM500.13,172.07c.07.31.08.62.01.92-.03.16-.11.22-.28.22h-1.47c-.44,0-.89,0-1.33,0-.43,0-.7-.22-.87-.58-.14-.29-.1-.58.07-.85.2-.32.51-.5.84-.65.44-.19.91-.26,1.38-.23.35.02.69.1,1,.28.34.2.55.5.64.88Z"/>
      <path class="cls-6" d="M502.45,162.22c-.43.03-.84.13-1.21.35-.69.41-1,1.02-.91,1.81.05.43.23.8.54,1.11.09.09.19.18.3.28-.05,0-.08,0-.12.02-.32.03-.49.19-.53.52-.02.12-.02.24-.02.37v.92c0,.06.02.11.09.12.06,0,.09-.03.1-.09.08-.39.32-.58.72-.58h2.71c.25,0,.49,0,.74,0,.15,0,.27.05.33.18.04.08.07.18.1.27.01.03.02.06.02.09,0,.06.05.1.1.08.03-.01.07-.06.07-.1,0-.32-.02-.64-.02-.95,0-.41.04-.82.05-1.23,0-.24-.01-.48-.02-.72,0-.62-.23-1.15-.66-1.6-.32-.33-.7-.56-1.13-.7-.41-.13-.83-.18-1.26-.15ZM504.59,163.85c.3.22.45.54.52.89.05.27.05.53,0,.79-.03.16-.11.23-.27.23h-1.88v.02h-.94c-.37,0-.63-.18-.81-.49-.23-.39-.16-.81.16-1.14.34-.35.76-.52,1.21-.62.18-.04.37-.07.55-.07.52-.01,1.03.07,1.46.39Z"/>
    </g>
    <g>
      <path class="cls-6" d="M546.83,164.11l1.75-1.01c.35-.2.75-.31,1.15-.31s.8.11,1.15.31c.35.2.64.49.85.85.2.35.31.75.31,1.15v1.36h1.65l-2.31,3.3-2.31-3.3h1.65v-1.36c0-.17-.05-.34-.13-.49-.09-.15-.21-.28-.36-.36-.15-.09-.32-.13-.49-.13s-.34.05-.49.13l-1.75,1.01-.66-1.14ZM544.88,172.2l4.01-.35-.82,1.43,1.18.68c.15.09.32.13.49.13s.34-.05.49-.13c.15-.09.28-.21.36-.36.09-.15.13-.32.13-.49v-2.02h1.32v2.02c0,.41-.11.8-.31,1.15-.2.35-.49.64-.85.85-.35.2-.75.31-1.15.31s-.8-.11-1.15-.31l-1.18-.68-.82,1.43-1.7-3.65ZM540.81,167.95c.2-.35.49-.64.85-.84l1.18-.68-.82-1.43,4.01.35-1.7,3.65-.82-1.43-1.18.68c-.15.09-.28.21-.36.36-.09.15-.13.32-.13.49s.05.34.13.49c.09.15.21.28.36.36l1.75,1.01-.66,1.14-1.75-1.01c-.53-.31-.92-.81-1.08-1.4-.16-.59-.08-1.22.23-1.75"/>
      <path class="cls-6" d="M550.93,146.21c0-.16-.06-.32-.18-.43s-.27-.18-.43-.18h-6.14c-.16,0-.32.06-.43.18s-.18.27-.18.43.06.32.18.43.27.18.43.18h6.14c.16,0,.32-.06.43-.18s.18-.27.18-.43ZM542.96,145.59v-.61h.61c.16,0,.32-.06.43-.18s.18-.27.18-.43-.06-.32-.18-.43-.27-.18-.43-.18h-.61v-.61c0-.16-.06-.32-.18-.43-.12-.12-.27-.18-.43-.18s-.32.06-.43.18-.18.27-.18.43v.61h-.61c-.16,0-.32.06-.43.18s-.18.27-.18.43.06.32.18.43.27.18.43.18h.61v.61c0,.16.06.32.18.43s.27.18.43.18.32-.06.43-.18c.12-.12.18-.27.18-.43ZM545.41,143.39c.02.08.05.15.09.22.05.07.1.12.17.17.07.04.14.08.22.09.08.02.16.02.24,0,1.16-.24,2.37-.1,3.45.4,1.08.5,1.96,1.34,2.53,2.38.56,1.05.77,2.25.6,3.42-.17,1.18-.72,2.26-1.56,3.1-.84.84-1.93,1.39-3.1,1.56-1.18.17-2.37-.04-3.42-.6-1.05-.56-1.88-1.45-2.38-2.53-.5-1.08-.64-2.29-.4-3.45.03-.16,0-.33-.09-.47s-.24-.23-.4-.27c-.16-.03-.33,0-.47.09-.14.09-.23.24-.27.4-.08.45-.12.91-.11,1.36,0,1.33.4,2.64,1.14,3.75.74,1.11,1.8,1.98,3.03,2.49,1.23.51,2.59.64,3.9.38,1.31-.26,2.51-.9,3.46-1.85.94-.94,1.59-2.15,1.85-3.46.26-1.31.13-2.67-.38-3.9-.51-1.23-1.38-2.29-2.49-3.03-1.11-.74-2.42-1.14-3.75-1.14-.45,0-.91.04-1.35.13-.08.01-.16.05-.22.09-.07.04-.13.1-.17.17-.05.07-.08.14-.09.22-.02.08-.02.16,0,.24ZM547.87,150.5v-.61c0-.49-.19-.96-.54-1.3s-.81-.54-1.3-.54h-.61c-.49,0-.96.19-1.3.54s-.54.81-.54,1.3v.61c0,.49.19.96.54,1.3s.81.54,1.3.54c.16,0,.32-.06.43-.18s.18-.27.18-.43-.06-.32-.18-.43-.27-.18-.43-.18-.32-.06-.43-.18c-.12-.12-.18-.27-.18-.43v-.61c0-.16.06-.32.18-.43.12-.12.27-.18.43-.18h.61c.16,0,.32.06.43.18.12.12.18.27.18.43v.61c0,.49.19.96.54,1.3.35.35.81.54,1.3.54h1.84c.16,0,.32-.06.43-.18s.18-.27.18-.43v-3.07c0-.16-.06-.32-.18-.43s-.27-.18-.43-.18-.32.06-.43.18-.18.27-.18.43v2.45h-1.23c-.16,0-.32-.06-.43-.18s-.18-.27-.18-.43Z"/>
    </g>
    <g>
      <path class="cls-9" d="M551.16,72.07c1.57,0,2.83,1.27,2.83,2.83v10.4-1.01c0-1.07-.86-1.93-1.93-1.93h-5.69c-1.48,0-2.67-1.2-2.67-2.67v-5.68c0-1.07-.87-1.93-1.93-1.93h-1.05,10.44Z"/>
      <path class="cls-2" d="M542.61,72.07h8.25c1.73,0,3.14,1.4,3.14,3.14v8.13l-11.39-11.26Z"/>
    </g>
    <path class="cls-3" d="M547.44,78.77l-1.63,1.63h1.45s.06.01.08.03c.02.02.03.05.03.08s-.01.06-.03.08-.05.03-.08.03h-1.71s-.06-.01-.08-.03c-.02-.02-.03-.05-.03-.08v-1.73s.01-.06.03-.08c.02-.02.05-.03.08-.03s.06.01.08.03c.02.02.03.05.03.08v1.47l1.63-1.63s.02-.02.03-.02c.01,0,.03,0,.04,0s.03,0,.04,0c.01,0,.02.01.03.02,0,0,.02.02.02.03,0,.01,0,.03,0,.04s0,.03,0,.04c0,.01-.01.02-.02.03Z"/>
  </g>
</svg>